<svg width="632" height="376" viewBox="0 0 632 376" fill="none" xmlns="http://www.w3.org/2000/svg">
<rect width="632" height="376" fill="#071324"/>
<mask id="mask0_1301_13692" style="mask-type:alpha" maskUnits="userSpaceOnUse" x="0" y="0" width="632" height="376">
<rect width="632" height="376" fill="#EAD9CC"/>
</mask>
<g mask="url(#mask0_1301_13692)">
<g filter="url(#filter0_d_1301_13692)">
<rect width="308.206" height="388.387" rx="24" transform="matrix(0.90205 -0.431632 0.705976 0.708235 -34.3674 246.324)" fill="#0F1E34"/>
</g>
<path fill-rule="evenodd" clip-rule="evenodd" d="M171.34 284.714C169.781 283.149 170.132 281.108 172.125 280.154L289.071 224.195C291.064 223.242 293.944 223.737 295.503 225.302L300.429 230.242C301.988 231.807 301.637 233.848 299.644 234.802L182.698 290.761C180.705 291.715 177.825 291.219 176.266 289.655L171.34 284.714Z" fill="#465E82"/>
<path fill-rule="evenodd" clip-rule="evenodd" d="M187.55 300.977C186.77 300.195 186.946 299.174 187.942 298.697L254.513 266.843C255.509 266.366 256.949 266.614 257.729 267.396L261.954 271.634C262.734 272.417 262.558 273.437 261.562 273.914L194.991 305.768C193.994 306.245 192.555 305.998 191.775 305.215L187.55 300.977Z" fill="#213450"/>
<path fill-rule="evenodd" clip-rule="evenodd" d="M197.418 310.875C196.638 310.093 196.814 309.072 197.81 308.596L313.866 253.063C314.863 252.586 316.303 252.834 317.083 253.616L321.307 257.854C322.087 258.636 321.912 259.657 320.915 260.134L204.859 315.667C203.863 316.144 202.423 315.896 201.643 315.114L197.418 310.875Z" fill="#213450"/>
<path fill-rule="evenodd" clip-rule="evenodd" d="M207.286 320.776C206.506 319.994 206.682 318.973 207.678 318.496L298.542 275.018C299.538 274.541 300.978 274.789 301.758 275.571L305.983 279.809C306.763 280.591 306.587 281.612 305.591 282.089L214.727 325.567C213.731 326.044 212.291 325.796 211.511 325.014L207.286 320.776Z" fill="#213450"/>
<rect width="75.8047" height="67.8928" rx="8" transform="matrix(0.90205 -0.431632 0.705976 0.708235 81.6322 321.367)" fill="#213450"/>
<path d="M140.329 316.259L122.334 324.87L122.333 324.87C120.347 325.823 119.998 327.858 121.554 329.421L132.831 340.734L132.83 340.734C134.388 342.295 137.259 342.79 139.248 341.841L157.243 333.23L157.243 333.23C159.228 332.278 159.577 330.242 158.023 328.68L146.745 317.366C145.186 315.805 142.315 315.31 140.326 316.259L140.329 316.259ZM138.65 321.24L138.649 321.241C140.139 320.527 142.295 320.899 143.463 322.07C144.631 323.241 144.369 324.77 142.878 325.483C141.388 326.196 139.232 325.825 138.065 324.653L138.064 324.654C136.898 323.482 137.159 321.955 138.648 321.241L138.65 321.24ZM137.84 340.426L137.84 340.426C136.845 340.902 135.409 340.654 134.63 339.873L131.651 336.884L133.271 330.606L133.27 330.606C133.596 329.35 135.253 328.612 137.054 328.919L143.562 330.036L142.134 338.37L137.84 340.426ZM156.226 329.54C157.004 330.321 156.83 331.34 155.836 331.815L144.68 337.153L146.16 328.52L146.159 328.52C146.492 327.375 147.955 326.67 149.619 326.854L154.016 327.323L156.226 329.54Z" fill="#465E82"/>
<path fill-rule="evenodd" clip-rule="evenodd" d="M229.844 343.405C228.284 341.841 228.636 339.799 230.628 338.846L347.575 282.887C349.568 281.933 352.447 282.428 354.007 283.993L358.932 288.934C360.492 290.498 360.141 292.54 358.148 293.493L241.201 349.453C239.209 350.406 236.329 349.911 234.769 348.346L229.844 343.405Z" fill="#465E82"/>
<path fill-rule="evenodd" clip-rule="evenodd" d="M246.054 359.668C245.274 358.886 245.449 357.865 246.446 357.389L313.017 325.534C314.013 325.058 315.453 325.305 316.233 326.088L320.458 330.326C321.237 331.108 321.062 332.129 320.065 332.606L253.494 364.46C252.498 364.937 251.058 364.689 250.278 363.907L246.054 359.668Z" fill="#213450"/>
<path fill-rule="evenodd" clip-rule="evenodd" d="M255.922 369.567C255.142 368.785 255.318 367.764 256.314 367.287L372.37 311.754C373.367 311.277 374.806 311.525 375.586 312.307L379.811 316.545C380.591 317.328 380.415 318.348 379.419 318.825L263.363 374.358C262.366 374.835 260.926 374.587 260.147 373.805L255.922 369.567Z" fill="#213450"/>
<path fill-rule="evenodd" clip-rule="evenodd" d="M265.79 379.467C265.01 378.685 265.186 377.664 266.182 377.188L357.046 333.709C358.042 333.232 359.482 333.48 360.262 334.262L364.487 338.501C365.266 339.283 365.091 340.304 364.094 340.78L273.231 384.259C272.234 384.735 270.794 384.488 270.015 383.706L265.79 379.467Z" fill="#213450"/>
<rect width="75.8047" height="67.8928" rx="8" transform="matrix(0.90205 -0.431632 0.705976 0.708235 140.136 380.059)" fill="#213450"/>
<path d="M198.833 374.951L180.838 383.561L180.837 383.562C178.851 384.514 178.502 386.55 180.057 388.112L191.335 399.426L191.334 399.426C192.892 400.986 195.763 401.481 197.752 400.532L215.747 391.921L215.747 391.922C217.732 390.969 218.08 388.933 216.526 387.371L205.249 376.057C203.69 374.497 200.818 374.002 198.83 374.951L198.833 374.951ZM197.154 379.932L197.153 379.932C198.643 379.218 200.799 379.59 201.967 380.762C203.134 381.933 202.872 383.461 201.382 384.175C199.891 384.888 197.736 384.516 196.568 383.345L196.568 383.345C195.401 382.173 195.663 380.646 197.151 379.932L197.154 379.932ZM196.344 399.118L196.344 399.118C195.349 399.593 193.913 399.346 193.134 398.564L190.155 395.575L191.774 389.298L191.774 389.297C192.1 388.042 193.757 387.303 195.558 387.611L202.065 388.727L200.637 397.062L196.344 399.118ZM214.729 388.231C215.508 389.012 215.333 390.031 214.34 390.507L203.184 395.845L204.663 387.211L204.663 387.211C204.996 386.066 206.458 385.362 208.122 385.545L212.519 386.014L214.729 388.231Z" fill="#465E82"/>
<path fill-rule="evenodd" clip-rule="evenodd" d="M288.348 402.097C286.788 400.532 287.139 398.491 289.132 397.537L406.079 341.578C408.071 340.624 410.951 341.12 412.511 342.684L417.436 347.625C418.995 349.19 418.644 351.231 416.652 352.185L299.705 408.144C297.712 409.097 294.832 408.602 293.273 407.038L288.348 402.097Z" fill="#465E82"/>
<path fill-rule="evenodd" clip-rule="evenodd" d="M314.426 428.258C313.646 427.476 313.821 426.455 314.818 425.979L430.874 370.445C431.87 369.969 433.31 370.216 434.09 370.999L438.315 375.237C439.094 376.019 438.919 377.04 437.922 377.517L321.866 433.05C320.87 433.526 319.43 433.279 318.65 432.497L314.426 428.258Z" fill="#213450"/>
<path fill-rule="evenodd" clip-rule="evenodd" d="M76.6069 235.005C75.0473 233.44 75.3984 231.399 77.3912 230.445L183.541 179.652C185.534 178.699 188.414 179.194 189.973 180.759L194.898 185.7C196.458 187.264 196.107 189.306 194.114 190.259L87.9641 241.052C85.9714 242.006 83.0916 241.51 81.532 239.946L76.6069 235.005Z" fill="#465E82"/>
<path fill-rule="evenodd" clip-rule="evenodd" d="M96.3864 264.18C95.6066 263.398 95.7822 262.377 96.7786 261.9L218.233 203.784C219.23 203.307 220.669 203.555 221.449 204.337L227.084 209.99C227.863 210.772 227.688 211.793 226.692 212.27L105.237 270.386C104.241 270.863 102.801 270.615 102.021 269.833L96.3864 264.18Z" fill="#213450"/>
<path fill-rule="evenodd" clip-rule="evenodd" d="M68.2086 259.909C67.4288 259.126 67.6044 258.106 68.6007 257.629L222.446 184.014C223.442 183.537 224.882 183.785 225.662 184.567L231.296 190.22C232.076 191.002 231.9 192.022 230.904 192.499L77.0591 266.114C76.0627 266.591 74.6228 266.343 73.843 265.561L68.2086 259.909Z" fill="#213450"/>
<g filter="url(#filter1_d_1301_13692)">
<rect width="308.206" height="388.387" rx="24" transform="matrix(0.902056 -0.43162 0.705989 0.708223 201.293 29.5859)" fill="#0F1E34"/>
</g>
<path fill-rule="evenodd" clip-rule="evenodd" d="M332.101 119.481C330.541 117.917 330.893 115.875 332.885 114.922L452.532 57.6729C454.525 56.7193 457.404 57.2147 458.964 58.7793L462.48 62.3059C464.039 63.8704 463.688 65.9117 461.695 66.8652L342.049 124.114C340.056 125.068 337.176 124.572 335.617 123.008L332.101 119.481Z" fill="#465E82"/>
<path fill-rule="evenodd" clip-rule="evenodd" d="M457.569 245.347C456.009 243.782 456.361 241.741 458.353 240.787L634.683 156.416C636.676 155.462 639.556 155.958 641.116 157.522L644.631 161.049C646.191 162.613 645.84 164.655 643.847 165.608L467.517 249.98C465.524 250.933 462.644 250.438 461.085 248.873L457.569 245.347Z" fill="#465E82"/>
<path fill-rule="evenodd" clip-rule="evenodd" d="M345.492 132.914C344.712 132.132 344.887 131.112 345.884 130.635L485.334 63.91C486.33 63.4333 487.77 63.6809 488.55 64.4632L491.365 67.2872C492.145 68.0695 491.969 69.0901 490.973 69.5669L351.523 136.292C350.526 136.768 349.086 136.521 348.307 135.738L345.492 132.914Z" fill="#213450"/>
<path fill-rule="evenodd" clip-rule="evenodd" d="M470.959 258.78C470.18 257.997 470.355 256.977 471.352 256.5L627.897 181.596C628.893 181.119 630.333 181.366 631.113 182.149L633.928 184.973C634.708 185.755 634.532 186.776 633.536 187.252L476.991 262.157C475.994 262.634 474.554 262.386 473.775 261.604L470.959 258.78Z" fill="#213450"/>
<path fill-rule="evenodd" clip-rule="evenodd" d="M353.95 141.401C353.17 140.619 353.346 139.598 354.342 139.121L541.478 49.5793C542.475 49.1025 543.915 49.3502 544.695 50.1325L547.51 52.9564C548.289 53.7387 548.114 54.7594 547.117 55.2361L359.981 144.778C358.985 145.255 357.545 145.007 356.765 144.225L353.95 141.401Z" fill="#213450"/>
<path fill-rule="evenodd" clip-rule="evenodd" d="M479.418 267.266C478.638 266.484 478.814 265.463 479.81 264.986L591.368 211.607C592.365 211.131 593.805 211.378 594.584 212.161L597.399 214.985C598.179 215.767 598.004 216.788 597.007 217.264L485.449 270.643C484.453 271.12 483.013 270.872 482.233 270.09L479.418 267.266Z" fill="#213450"/>
<rect width="246.365" height="105.833" rx="8" transform="matrix(0.902056 -0.43162 0.705989 0.708223 246.807 33.918)" fill="#213450"/>
<rect width="246.365" height="105.833" rx="8" transform="matrix(0.902056 -0.43162 0.705989 0.708223 372.275 159.783)" fill="#213450"/>
<path d="M396.483 -2.18972L368.205 11.3412L368.204 11.3417C365.083 12.8381 364.55 16.052 367.012 18.5261L384.868 36.439L384.867 36.4387C387.334 38.9096 391.861 39.7023 394.986 38.2112L423.265 24.6802L423.264 24.6806C426.383 23.1839 426.916 19.97 424.455 17.4962L406.599 -0.41669C404.13 -2.88782 399.603 -3.68053 396.478 -2.18943L396.483 -2.18972ZM393.878 5.67125L393.877 5.67167C396.218 4.55044 399.618 5.14573 401.467 7.0007C403.315 8.85496 402.915 11.2685 400.573 12.389C398.23 13.51 394.832 12.9143 392.983 11.06L392.982 11.0604C391.136 9.2053 391.536 6.79402 393.874 5.67182L393.878 5.67125ZM392.757 35.9715L392.756 35.9718C391.193 36.7187 388.929 36.3222 387.696 35.0851L382.978 30.3529L385.479 20.444L385.479 20.4433C385.981 18.4613 388.586 17.3007 391.426 17.7939L401.686 19.5825L399.504 32.7412L392.757 35.9715ZM421.632 18.8483C422.864 20.0847 422.597 21.6934 421.036 22.4405L403.506 30.8284L405.766 17.1983L405.766 17.1976C406.281 15.3904 408.579 14.2836 411.202 14.58L418.132 15.3378L421.632 18.8483Z" fill="#465E82"/>
<path d="M521.951 123.676L493.673 137.206L493.672 137.207C490.551 138.703 490.018 141.917 492.48 144.391L510.336 162.304L510.335 162.304C512.802 164.775 517.329 165.568 520.454 164.076L548.733 150.545L548.732 150.546C551.851 149.049 552.384 145.835 549.923 143.361L532.067 125.449C529.598 122.977 525.071 122.185 521.946 123.676L521.951 123.676ZM519.346 131.536L519.345 131.537C521.686 130.416 525.086 131.011 526.935 132.866C528.783 134.72 528.383 137.134 526.041 138.254C523.698 139.375 520.3 138.779 518.451 136.925L518.45 136.926C516.604 135.071 517.004 132.659 519.342 131.537L519.346 131.536ZM518.225 161.837L518.224 161.837C516.661 162.584 514.397 162.187 513.164 160.95L508.446 156.218L510.947 146.309L510.947 146.309C511.449 144.327 514.054 143.166 516.894 143.659L527.154 145.448L524.972 158.606L518.225 161.837ZM547.1 144.714C548.332 145.95 548.065 147.559 546.504 148.306L528.974 156.694L531.234 143.064L531.234 143.063C531.749 141.256 534.047 140.149 536.67 140.445L543.6 141.203L547.1 144.714Z" fill="#465E82"/>
</g>
<defs>
<filter id="filter0_d_1301_13692" x="-63.2672" y="105.74" width="610.009" height="473.205" filterUnits="userSpaceOnUse" color-interpolation-filters="sRGB">
<feFlood flood-opacity="0" result="BackgroundImageFix"/>
<feColorMatrix in="SourceAlpha" type="matrix" values="0 0 0 0 0 0 0 0 0 0 0 0 0 0 0 0 0 0 127 0" result="hardAlpha"/>
<feMorphology radius="10" operator="erode" in="SourceAlpha" result="effect1_dropShadow_1301_13692"/>
<feOffset dy="25"/>
<feGaussianBlur stdDeviation="25"/>
<feColorMatrix type="matrix" values="0 0 0 0 0.021875 0 0 0 0 0.0395148 0 0 0 0 0.125 0 0 0 1 0"/>
<feBlend mode="normal" in2="BackgroundImageFix" result="effect1_dropShadow_1301_13692"/>
<feBlend mode="normal" in="SourceGraphic" in2="effect1_dropShadow_1301_13692" result="shape"/>
</filter>
<filter id="filter1_d_1301_13692" x="172.393" y="-110.994" width="610.015" height="473.197" filterUnits="userSpaceOnUse" color-interpolation-filters="sRGB">
<feFlood flood-opacity="0" result="BackgroundImageFix"/>
<feColorMatrix in="SourceAlpha" type="matrix" values="0 0 0 0 0 0 0 0 0 0 0 0 0 0 0 0 0 0 127 0" result="hardAlpha"/>
<feMorphology radius="10" operator="erode" in="SourceAlpha" result="effect1_dropShadow_1301_13692"/>
<feOffset dy="25"/>
<feGaussianBlur stdDeviation="25"/>
<feColorMatrix type="matrix" values="0 0 0 0 0.021875 0 0 0 0 0.0395148 0 0 0 0 0.125 0 0 0 1 0"/>
<feBlend mode="normal" in2="BackgroundImageFix" result="effect1_dropShadow_1301_13692"/>
<feBlend mode="normal" in="SourceGraphic" in2="effect1_dropShadow_1301_13692" result="shape"/>
</filter>
</defs>
</svg>
