<svg width="632" height="376" viewBox="0 0 632 376" fill="none" xmlns="http://www.w3.org/2000/svg">
<rect width="632" height="376" fill="#071324"/>
<mask id="mask0_1301_13670" style="mask-type:alpha" maskUnits="userSpaceOnUse" x="0" y="0" width="632" height="376">
<rect width="632" height="376" fill="#EAD9CC"/>
</mask>
<g mask="url(#mask0_1301_13670)">
<g filter="url(#filter0_d_1301_13670)">
<rect width="308.206" height="388.387" rx="24" transform="matrix(0.902056 -0.43162 0.705989 0.708223 81.8594 31.1875)" fill="#0F1E34"/>
</g>
<path fill-rule="evenodd" clip-rule="evenodd" d="M287.57 69.579C286.01 68.0144 286.361 65.9731 288.354 65.0196L405.301 9.06204C407.294 8.10853 410.174 8.60389 411.733 10.1685L416.659 15.1093C418.218 16.6738 417.867 18.7151 415.874 19.6686L298.927 75.6262C296.934 76.5797 294.054 76.0844 292.495 74.5198L287.57 69.579Z" fill="#465E82"/>
<path fill-rule="evenodd" clip-rule="evenodd" d="M303.78 85.8403C303 85.058 303.175 84.0373 304.172 83.5606L370.743 51.7072C371.74 51.2304 373.179 51.4781 373.959 52.2604L378.184 56.4986C378.964 57.2809 378.788 58.3015 377.792 58.7783L311.221 90.6317C310.224 91.1084 308.784 90.8607 308.004 90.0784L303.78 85.8403Z" fill="#213450"/>
<path fill-rule="evenodd" clip-rule="evenodd" d="M313.648 95.7407C312.868 94.9584 313.044 93.9377 314.04 93.461L430.097 37.9295C431.093 37.4527 432.533 37.7004 433.313 38.4827L437.538 42.7209C438.318 43.5031 438.142 44.5238 437.146 45.0005L321.089 100.532C320.092 101.009 318.652 100.761 317.873 99.9788L313.648 95.7407Z" fill="#213450"/>
<path fill-rule="evenodd" clip-rule="evenodd" d="M323.516 105.639C322.736 104.857 322.912 103.836 323.908 103.359L414.773 59.8822C415.769 59.4055 417.209 59.6531 417.989 60.4354L422.214 64.6736C422.993 65.4559 422.818 66.4765 421.821 66.9533L330.957 110.43C329.961 110.907 328.521 110.66 327.741 109.877L323.516 105.639Z" fill="#213450"/>
<rect width="75.8047" height="67.8928" rx="8" transform="matrix(0.902056 -0.43162 0.705989 0.708223 197.861 106.23)" fill="#213450"/>
<path d="M256.559 101.123L238.563 109.733L238.562 109.734C236.576 110.686 236.228 112.721 237.783 114.284L249.061 125.597L249.06 125.597C250.618 127.158 253.489 127.653 255.477 126.704L273.473 118.093L273.472 118.093C275.458 117.141 275.806 115.105 274.252 113.543L262.974 102.23C261.415 100.669 258.544 100.174 256.555 101.123L256.559 101.123ZM254.879 106.104L254.879 106.104C256.368 105.39 258.525 105.762 259.692 106.934C260.86 108.105 260.598 109.633 259.108 110.346C257.617 111.06 255.461 110.688 254.294 109.517L254.293 109.517C253.127 108.345 253.389 106.818 254.877 106.104L254.879 106.104ZM254.07 125.289L254.069 125.289C253.075 125.765 251.638 125.517 250.86 124.736L247.88 121.747L249.5 115.47L249.5 115.469C249.825 114.214 251.482 113.475 253.284 113.783L259.791 114.899L258.363 123.234L254.07 125.289ZM272.455 114.403C273.234 115.184 273.059 116.203 272.065 116.679L260.91 122.016L262.389 113.383L262.389 113.383C262.722 112.238 264.184 111.534 265.848 111.717L270.245 112.186L272.455 114.403Z" fill="#465E82"/>
<path fill-rule="evenodd" clip-rule="evenodd" d="M346.074 128.268C344.515 126.704 344.866 124.663 346.858 123.709L463.806 67.7515C465.799 66.798 468.678 67.2933 470.238 68.8579L475.163 73.7987C476.723 75.3633 476.372 77.4046 474.379 78.3581L357.432 134.316C355.439 135.269 352.559 134.774 350.999 133.209L346.074 128.268Z" fill="#465E82"/>
<path fill-rule="evenodd" clip-rule="evenodd" d="M362.284 144.53C361.504 143.747 361.68 142.727 362.676 142.25L429.248 110.397C430.244 109.92 431.684 110.168 432.464 110.95L436.689 115.188C437.468 115.97 437.293 116.991 436.297 117.468L369.725 149.321C368.729 149.798 367.289 149.55 366.509 148.768L362.284 144.53Z" fill="#213450"/>
<path fill-rule="evenodd" clip-rule="evenodd" d="M372.152 154.43C371.373 153.648 371.548 152.627 372.545 152.15L488.602 96.6189C489.598 96.1422 491.038 96.3899 491.818 97.1721L496.042 101.41C496.822 102.193 496.647 103.213 495.65 103.69L379.593 159.222C378.597 159.698 377.157 159.451 376.377 158.668L372.152 154.43Z" fill="#213450"/>
<path fill-rule="evenodd" clip-rule="evenodd" d="M382.021 164.329C381.241 163.546 381.416 162.526 382.413 162.049L473.277 118.572C474.274 118.095 475.713 118.343 476.493 119.125L480.718 123.363C481.498 124.145 481.322 125.166 480.326 125.643L389.462 169.12C388.465 169.597 387.025 169.349 386.246 168.567L382.021 164.329Z" fill="#213450"/>
<rect width="75.8047" height="67.8928" rx="8" transform="matrix(0.902056 -0.43162 0.705989 0.708223 256.365 164.92)" fill="#213450"/>
<path d="M315.063 159.812L297.068 168.423L297.067 168.423C295.081 169.375 294.732 171.411 296.287 172.974L307.565 184.287L307.564 184.287C309.122 185.847 311.994 186.342 313.982 185.393L331.978 176.783L331.977 176.783C333.962 175.83 334.311 173.795 332.757 172.232L321.479 160.919C319.92 159.358 317.049 158.863 315.06 159.812L315.063 159.812ZM313.384 164.793L313.383 164.793C314.873 164.08 317.029 164.452 318.197 165.623C319.365 166.794 319.103 168.323 317.612 169.036C316.122 169.749 313.966 169.377 312.798 168.206L312.798 168.207C311.632 167.035 311.893 165.508 313.382 164.794L313.384 164.793ZM312.575 183.979L312.574 183.979C311.579 184.454 310.143 184.207 309.364 183.425L306.385 180.437L308.005 174.159L308.004 174.159C308.33 172.903 309.987 172.164 311.788 172.472L318.296 173.589L316.868 181.923L312.575 183.979ZM330.96 173.093C331.738 173.874 331.564 174.893 330.57 175.368L319.415 180.706L320.894 172.073L320.893 172.072C321.226 170.927 322.689 170.223 324.353 170.407L328.75 170.876L330.96 173.093Z" fill="#465E82"/>
<path fill-rule="evenodd" clip-rule="evenodd" d="M404.579 186.958C403.019 185.393 403.37 183.352 405.363 182.399L522.311 126.441C524.303 125.487 527.183 125.983 528.743 127.547L533.668 132.488C535.228 134.053 534.877 136.094 532.884 137.048L415.936 193.005C413.944 193.959 411.064 193.463 409.504 191.899L404.579 186.958Z" fill="#465E82"/>
<path fill-rule="evenodd" clip-rule="evenodd" d="M420.789 203.219C420.009 202.437 420.185 201.416 421.181 200.939L487.752 169.086C488.749 168.609 490.189 168.857 490.969 169.639L495.193 173.877C495.973 174.66 495.798 175.68 494.801 176.157L428.23 208.011C427.233 208.487 425.794 208.24 425.014 207.457L420.789 203.219Z" fill="#213450"/>
<path fill-rule="evenodd" clip-rule="evenodd" d="M430.657 213.12C429.877 212.337 430.053 211.317 431.049 210.84L547.106 155.308C548.103 154.832 549.542 155.079 550.322 155.862L554.547 160.1C555.327 160.882 555.151 161.903 554.155 162.379L438.098 217.911C437.102 218.388 435.662 218.14 434.882 217.358L430.657 213.12Z" fill="#213450"/>
<path fill-rule="evenodd" clip-rule="evenodd" d="M440.525 223.018C439.746 222.236 439.921 221.215 440.918 220.738L531.782 177.261C532.778 176.784 534.218 177.032 534.998 177.814L539.223 182.052C540.002 182.835 539.827 183.855 538.831 184.332L447.966 227.809C446.97 228.286 445.53 228.038 444.75 227.256L440.525 223.018Z" fill="#213450"/>
<rect width="75.8047" height="67.8928" rx="8" transform="matrix(0.902056 -0.43162 0.705989 0.708223 314.87 223.609)" fill="#213450"/>
<path d="M373.568 218.502L355.572 227.112L355.572 227.112C353.586 228.065 353.237 230.1 354.792 231.663L366.07 242.976L366.069 242.976C367.627 244.537 370.498 245.032 372.487 244.083L390.482 235.472L390.482 235.472C392.467 234.52 392.816 232.484 391.261 230.922L379.984 219.608C378.425 218.048 375.553 217.553 373.565 218.502L373.568 218.502ZM371.888 223.483L371.888 223.483C373.378 222.769 375.534 223.141 376.702 224.313C377.869 225.484 377.607 227.012 376.117 227.725C374.626 228.439 372.471 228.067 371.303 226.896L371.303 226.896C370.136 225.724 370.398 224.197 371.886 223.483L371.888 223.483ZM371.079 242.668L371.079 242.668C370.084 243.144 368.648 242.896 367.869 242.115L364.89 239.126L366.509 232.849L366.509 232.848C366.834 231.593 368.492 230.854 370.293 231.162L376.8 232.278L375.372 240.613L371.079 242.668ZM389.465 231.782C390.243 232.563 390.068 233.582 389.075 234.058L377.919 239.395L379.398 230.762L379.398 230.762C379.731 229.617 381.193 228.913 382.857 229.096L387.254 229.565L389.465 231.782Z" fill="#465E82"/>
<path fill-rule="evenodd" clip-rule="evenodd" d="M192.835 19.8681C191.275 18.3035 191.626 16.2622 193.619 15.3087L299.77 -35.4828C301.762 -36.4363 304.642 -35.9409 306.202 -34.3764L311.127 -29.4355C312.687 -27.871 312.335 -25.8297 310.343 -24.8762L204.192 25.9153C202.199 26.8688 199.32 26.3734 197.76 24.8089L192.835 19.8681Z" fill="#465E82"/>
<path fill-rule="evenodd" clip-rule="evenodd" d="M212.615 49.0434C211.835 48.2611 212.011 47.2405 213.007 46.7637L334.462 -11.3509C335.459 -11.8276 336.899 -11.5799 337.678 -10.7976L343.313 -5.14526C344.093 -4.36298 343.917 -3.34233 342.921 -2.86557L221.466 55.249C220.469 55.7258 219.029 55.4781 218.249 54.6958L212.615 49.0434Z" fill="#213450"/>
<path fill-rule="evenodd" clip-rule="evenodd" d="M184.437 44.7719C183.657 43.9896 183.832 42.969 184.829 42.4922L338.675 -31.1207C339.671 -31.5975 341.111 -31.3498 341.891 -30.5675L347.525 -24.9152C348.305 -24.1329 348.13 -23.1122 347.133 -22.6355L193.287 50.9775C192.291 51.4543 190.851 51.2066 190.071 50.4243L184.437 44.7719Z" fill="#213450"/>
<g filter="url(#filter1_d_1301_13670)">
<rect width="962.521" height="458.277" rx="24" transform="matrix(0.902056 -0.43162 0.705989 0.708223 -482.969 468.004)" fill="#0F1E34"/>
</g>
<path fill-rule="evenodd" clip-rule="evenodd" d="M243.47 335.561C241.911 333.997 242.262 331.956 244.254 331.002L460.173 227.688C462.166 226.735 465.046 227.23 466.605 228.795L471.53 233.735C473.09 235.3 472.739 237.341 470.746 238.295L254.828 341.609C252.835 342.562 249.955 342.067 248.395 340.502L243.47 335.561Z" fill="#465E82"/>
<path fill-rule="evenodd" clip-rule="evenodd" d="M259.68 351.823C258.9 351.04 259.076 350.02 260.072 349.543L359.034 302.191C360.03 301.714 361.47 301.962 362.25 302.744L366.475 306.983C367.255 307.765 367.079 308.786 366.083 309.262L267.121 356.614C266.125 357.091 264.685 356.843 263.905 356.061L259.68 351.823Z" fill="#213450"/>
<path fill-rule="evenodd" clip-rule="evenodd" d="M269.548 361.723C268.769 360.941 268.944 359.92 269.941 359.443L448.079 274.207C449.076 273.73 450.516 273.978 451.296 274.76L455.52 278.998C456.3 279.78 456.125 280.801 455.128 281.278L276.989 366.514C275.993 366.991 274.553 366.744 273.773 365.961L269.548 361.723Z" fill="#213450"/>
<rect width="288.258" height="157.751" rx="8" transform="matrix(0.902056 -0.43162 0.705989 0.708223 119.407 211.107)" fill="#213450"/>
<rect width="288.258" height="157.751" rx="8" transform="matrix(0.902056 -0.43162 0.705989 0.708223 -164.91 347.148)" fill="#213450"/>
<path d="M305.929 180.347L271.866 196.645L271.865 196.646C268.106 198.448 267.475 202.332 270.456 205.326L292.072 227.011L292.07 227.01C295.056 230.001 300.521 230.968 304.285 229.172L338.348 212.873L338.347 212.874C342.105 211.071 342.735 207.188 339.756 204.193L318.14 182.509C315.152 179.518 309.687 178.551 305.923 180.347L305.929 180.347ZM302.817 189.842L302.816 189.843C305.636 188.492 309.74 189.218 311.978 191.464C314.216 193.708 313.743 196.625 310.922 197.974C308.1 199.325 303.997 198.598 301.76 196.353L301.759 196.354C299.523 194.108 299.996 191.195 302.813 189.843L302.817 189.842ZM301.587 226.461L301.586 226.461C299.704 227.361 296.97 226.877 295.477 225.38L289.767 219.651L292.744 207.68L292.743 207.679C293.342 205.285 296.48 203.887 299.908 204.489L312.294 206.67L309.714 222.57L301.587 226.461ZM336.355 205.822C337.847 207.318 337.531 209.262 335.651 210.162L314.535 220.266L317.207 203.797L317.206 203.796C317.821 201.613 320.589 200.28 323.754 200.643L332.119 201.572L336.355 205.822Z" fill="#465E82"/>
<path d="M21.6119 316.388L-12.4512 332.686L-12.4522 332.687C-16.2115 334.489 -16.8417 338.373 -13.8609 341.368L7.75472 363.052L7.75281 363.051C10.7391 366.042 16.2041 367.009 19.9683 365.213L54.0313 348.914L54.0302 348.915C57.7876 347.112 58.4178 343.229 55.4389 340.234L33.8233 318.55C30.8351 315.559 25.3701 314.592 21.6059 316.388L21.6119 316.388ZM18.5 325.883L18.499 325.884C21.319 324.533 25.423 325.259 27.6614 327.505C29.8989 329.749 29.4257 332.666 26.6048 334.015C23.7829 335.366 19.68 334.639 17.4424 332.394L17.4414 332.395C15.2059 330.149 15.6787 327.236 18.496 325.884L18.5 325.883ZM17.2703 362.502L17.2692 362.502C15.3864 363.402 12.6529 362.918 11.1601 361.421L5.44969 355.692L8.42715 343.721L8.42631 343.72C9.02499 341.326 12.1629 339.928 15.591 340.53L27.977 342.711L25.3969 358.611L17.2703 362.502ZM52.0377 341.863C53.5297 343.36 53.2143 345.303 51.3334 346.203L30.2175 356.307L32.8901 339.838L32.8892 339.837C33.5037 337.654 36.2718 336.321 39.4371 336.684L47.8016 337.613L52.0377 341.863Z" fill="#465E82"/>
<rect width="603.446" height="30.9511" rx="8" transform="matrix(0.902056 -0.43162 0.705989 0.708223 94.4849 607.363)" fill="#213450"/>
<rect width="603.446" height="30.9511" rx="8" transform="matrix(0.902056 -0.43162 0.705989 0.708223 66.2898 579.08)" fill="#213450"/>
<path fill-rule="evenodd" clip-rule="evenodd" d="M437.15 415.209C436.37 414.427 436.546 413.406 437.542 412.93L514.91 375.91C515.907 375.433 517.347 375.681 518.126 376.463L522.351 380.702C523.131 381.484 522.955 382.505 521.959 382.981L444.591 420.001C443.595 420.478 442.155 420.23 441.375 419.448L437.15 415.209Z" fill="#465E82"/>
<rect width="603.446" height="30.9511" rx="8" transform="matrix(0.902056 -0.43162 0.705989 0.708223 38.0947 550.795)" fill="#213450"/>
<path fill-rule="evenodd" clip-rule="evenodd" d="M408.955 386.924C408.175 386.142 408.351 385.121 409.347 384.645L450.726 364.846C451.722 364.369 453.162 364.616 453.942 365.399L458.167 369.637C458.946 370.419 458.771 371.44 457.774 371.917L416.396 391.716C415.399 392.192 413.96 391.945 413.18 391.162L408.955 386.924Z" fill="#465E82"/>
<rect width="603.446" height="30.9511" rx="8" transform="matrix(0.902056 -0.43162 0.705989 0.708223 9.89966 522.512)" fill="#213450"/>
<path fill-rule="evenodd" clip-rule="evenodd" d="M380.76 358.641C379.98 357.859 380.156 356.838 381.152 356.361L523.301 288.345C524.298 287.868 525.738 288.116 526.517 288.898L530.742 293.136C531.522 293.919 531.347 294.939 530.35 295.416L388.201 363.432C387.204 363.909 385.765 363.662 384.985 362.879L380.76 358.641Z" fill="#465E82"/>
</g>
<defs>
<filter id="filter0_d_1301_13670" x="52.9597" y="-109.393" width="610.015" height="473.197" filterUnits="userSpaceOnUse" color-interpolation-filters="sRGB">
<feFlood flood-opacity="0" result="BackgroundImageFix"/>
<feColorMatrix in="SourceAlpha" type="matrix" values="0 0 0 0 0 0 0 0 0 0 0 0 0 0 0 0 0 0 127 0" result="hardAlpha"/>
<feMorphology radius="10" operator="erode" in="SourceAlpha" result="effect1_dropShadow_1301_13670"/>
<feOffset dy="25"/>
<feGaussianBlur stdDeviation="25"/>
<feColorMatrix type="matrix" values="0 0 0 0 0.021875 0 0 0 0 0.0395148 0 0 0 0 0.125 0 0 0 1 0"/>
<feBlend mode="normal" in2="BackgroundImageFix" result="effect1_dropShadow_1301_13670"/>
<feBlend mode="normal" in="SourceGraphic" in2="effect1_dropShadow_1301_13670" result="shape"/>
</filter>
<filter id="filter1_d_1301_13670" x="-511.869" y="45.0098" width="1249.58" height="805.107" filterUnits="userSpaceOnUse" color-interpolation-filters="sRGB">
<feFlood flood-opacity="0" result="BackgroundImageFix"/>
<feColorMatrix in="SourceAlpha" type="matrix" values="0 0 0 0 0 0 0 0 0 0 0 0 0 0 0 0 0 0 127 0" result="hardAlpha"/>
<feMorphology radius="10" operator="erode" in="SourceAlpha" result="effect1_dropShadow_1301_13670"/>
<feOffset dy="25"/>
<feGaussianBlur stdDeviation="25"/>
<feColorMatrix type="matrix" values="0 0 0 0 0.021875 0 0 0 0 0.0395148 0 0 0 0 0.125 0 0 0 1 0"/>
<feBlend mode="normal" in2="BackgroundImageFix" result="effect1_dropShadow_1301_13670"/>
<feBlend mode="normal" in="SourceGraphic" in2="effect1_dropShadow_1301_13670" result="shape"/>
</filter>
</defs>
</svg>
