<svg width="972" height="577" viewBox="0 0 972 577" fill="none" xmlns="http://www.w3.org/2000/svg">
<rect width="972" height="577" fill="#071324"/>
<mask id="mask0_1301_13659" style="mask-type:alpha" maskUnits="userSpaceOnUse" x="0" y="0" width="972" height="577">
<rect width="972" height="577" fill="#EAD9CC"/>
</mask>
<g mask="url(#mask0_1301_13659)">
<g filter="url(#filter0_d_1301_13659)">
<rect width="917.128" height="561.975" rx="24" transform="matrix(0.902633 -0.430411 0.707207 0.707006 -102.976 284.252)" fill="#0F1E34"/>
</g>
<rect width="326.933" height="353.836" rx="8" transform="matrix(0.902633 -0.430411 0.707207 0.707006 52.5079 389.102)" fill="#213450"/>
<rect width="475.094" height="270.581" rx="8" transform="matrix(0.902633 -0.430411 0.707207 0.707006 287.731 136.303)" fill="#213450"/>
<rect width="269.383" height="132.229" rx="8" transform="matrix(0.902633 -0.430411 0.707207 0.707006 220.17 517.549)" fill="#0F1E34"/>
<rect width="269.383" height="102.845" rx="8" transform="matrix(0.902633 -0.430411 0.707207 0.707006 417.295 226.662)" fill="#0F1E34"/>
<rect width="326.933" height="96.7234" rx="8" transform="matrix(0.902633 -0.430411 0.707207 0.707006 -42.7373 293.883)" fill="#213450"/>
<path fill-rule="evenodd" clip-rule="evenodd" d="M181.269 444.387C179.707 442.825 180.057 440.788 182.051 439.837L241.145 411.659C243.139 410.708 246.022 411.203 247.584 412.765L250.585 415.765C252.147 417.327 251.797 419.364 249.803 420.315L190.71 448.493C188.715 449.444 185.832 448.949 184.27 447.387L181.269 444.387Z" fill="#465E82"/>
<path fill-rule="evenodd" clip-rule="evenodd" d="M198.587 461.699C197.024 460.137 197.374 458.1 199.368 457.149L258.462 428.971C260.456 428.02 263.339 428.516 264.901 430.078L267.902 433.078C269.465 434.64 269.115 436.677 267.121 437.627L208.027 465.806C206.033 466.756 203.15 466.261 201.588 464.699L198.587 461.699Z" fill="#465E82"/>
<path fill-rule="evenodd" clip-rule="evenodd" d="M784.438 146.545C782.876 144.983 783.226 142.946 785.22 141.995L844.314 113.817C846.308 112.866 849.191 113.361 850.753 114.923L853.754 117.923C855.317 119.485 854.967 121.522 852.973 122.473L793.879 150.651C791.885 151.602 789.002 151.107 787.439 149.545L784.438 146.545Z" fill="#465E82"/>
<path fill-rule="evenodd" clip-rule="evenodd" d="M765.389 127.5C763.827 125.938 764.177 123.901 766.171 122.95L825.265 94.772C827.259 93.8211 830.142 94.3165 831.704 95.8784L834.705 98.8785C836.268 100.44 835.918 102.477 833.924 103.428L774.83 131.606C772.836 132.557 769.953 132.062 768.39 130.5L765.389 127.5Z" fill="#465E82"/>
<path fill-rule="evenodd" clip-rule="evenodd" d="M747.206 109.322C745.644 107.76 745.994 105.723 747.988 104.772L807.082 76.5942C809.076 75.6434 811.959 76.1388 813.521 77.7006L816.522 80.7008C818.084 82.2627 817.734 84.2996 815.74 85.2505L756.647 113.429C754.652 114.38 751.769 113.884 750.207 112.322L747.206 109.322Z" fill="#465E82"/>
<path fill-rule="evenodd" clip-rule="evenodd" d="M729.023 91.1444C727.461 89.5826 727.811 87.5456 729.805 86.5948L788.898 58.4165C790.892 57.4657 793.775 57.961 795.338 59.5229L798.339 62.523C799.901 64.0849 799.551 66.1219 797.557 67.0727L738.463 95.251C736.469 96.2018 733.586 95.7065 732.024 94.1446L729.023 91.1444Z" fill="#465E82"/>
<rect width="12.2447" height="12.2435" rx="5" transform="matrix(0.902633 -0.430411 0.707207 0.707006 156.335 452.1)" fill="#465E82"/>
<rect width="12.2447" height="12.2434" rx="5" transform="matrix(0.902633 -0.430411 0.707207 0.707006 173.653 469.412)" fill="#465E82"/>
<rect width="12.2447" height="12.2435" rx="5" transform="matrix(0.902633 -0.430411 0.707207 0.707006 759.505 154.258)" fill="#465E82"/>
<rect width="12.2447" height="12.2435" rx="5" transform="matrix(0.902633 -0.430411 0.707207 0.707006 740.456 135.213)" fill="#465E82"/>
<rect width="12.2447" height="12.2435" rx="5" transform="matrix(0.902633 -0.430411 0.707207 0.707006 722.272 117.035)" fill="#465E82"/>
<rect width="12.2447" height="12.2435" rx="5" transform="matrix(0.902633 -0.430411 0.707207 0.707006 704.089 98.8574)" fill="#465E82"/>
<path fill-rule="evenodd" clip-rule="evenodd" d="M102.883 398.662C101.321 397.1 101.671 395.063 103.665 394.112L266.652 316.394C268.646 315.443 271.529 315.938 273.091 317.5L280.421 324.828C281.984 326.39 281.634 328.427 279.64 329.378L116.653 407.097C114.659 408.047 111.776 407.552 110.213 405.99L102.883 398.662Z" fill="#465E82"/>
<path fill-rule="evenodd" clip-rule="evenodd" d="M337.24 144.998C335.678 143.436 336.028 141.399 338.022 140.448L645.796 -6.3107C647.79 -7.26154 650.673 -6.7662 652.236 -5.20432L659.566 2.12393C661.128 3.6858 660.778 5.72276 658.784 6.6736L351.01 153.433C349.016 154.383 346.133 153.888 344.571 152.326L337.24 144.998Z" fill="#465E82"/>
<path fill-rule="evenodd" clip-rule="evenodd" d="M72.6076 273.742C71.0453 272.18 71.3953 270.143 73.3893 269.192L236.376 191.474C238.37 190.523 241.253 191.018 242.816 192.58L250.146 199.908C251.708 201.47 251.358 203.507 249.364 204.458L86.3773 282.177C84.3833 283.128 81.5003 282.632 79.938 281.07L72.6076 273.742Z" fill="#465E82"/>
<path fill-rule="evenodd" clip-rule="evenodd" d="M123.115 418.889C122.334 418.108 122.509 417.089 123.506 416.614L216.052 372.484C217.049 372.009 218.49 372.256 219.272 373.037L225.101 378.866C225.883 379.647 225.708 380.665 224.711 381.14L132.165 425.27C131.168 425.745 129.726 425.498 128.945 424.717L123.115 418.889Z" fill="#0F1E34"/>
<path fill-rule="evenodd" clip-rule="evenodd" d="M357.473 165.225C356.691 164.444 356.866 163.425 357.863 162.95L583.039 55.5771C584.036 55.1017 585.478 55.3493 586.259 56.1303L592.089 61.9585C592.87 62.7394 592.695 63.7579 591.698 64.2333L366.522 171.606C365.525 172.081 364.084 171.834 363.302 171.053L357.473 165.225Z" fill="#0F1E34"/>
<path fill-rule="evenodd" clip-rule="evenodd" d="M374.79 182.537C374.009 181.756 374.184 180.738 375.181 180.262L480.99 129.808C481.987 129.333 483.428 129.581 484.209 130.362L490.039 136.19C490.82 136.971 490.645 137.989 489.648 138.465L383.84 188.918C382.843 189.394 381.401 189.146 380.62 188.365L374.79 182.537Z" fill="#0F1E34"/>
<path fill-rule="evenodd" clip-rule="evenodd" d="M89.3765 290.506C88.5953 289.725 88.7703 288.706 89.7673 288.231L182.313 244.101C183.31 243.626 184.752 243.874 185.533 244.655L191.363 250.483C192.144 251.264 191.969 252.282 190.972 252.758L98.426 296.887C97.429 297.363 95.9875 297.115 95.2063 296.334L89.3765 290.506Z" fill="#0F1E34"/>
<path fill-rule="evenodd" clip-rule="evenodd" d="M138.701 434.471C137.92 433.69 138.094 432.671 139.092 432.196L264.795 372.255C265.792 371.78 267.233 372.028 268.015 372.809L273.844 378.637C274.626 379.418 274.451 380.436 273.454 380.912L147.75 440.852C146.753 441.327 145.312 441.08 144.531 440.299L138.701 434.471Z" fill="#0F1E34"/>
<path fill-rule="evenodd" clip-rule="evenodd" d="M322.064 595.534C321.067 596.009 319.626 595.761 318.845 594.981L300.893 577.034C300.112 576.253 300.287 575.234 301.284 574.759L308.343 571.393C309.34 570.917 310.781 571.165 311.562 571.946L329.514 589.893C330.295 590.674 330.12 591.692 329.123 592.168L322.064 595.534Z" fill="#465E82"/>
<path fill-rule="evenodd" clip-rule="evenodd" d="M390.349 562.973C389.352 563.449 387.91 563.201 387.129 562.42L369.177 544.473C368.396 543.692 368.571 542.674 369.568 542.198L376.627 538.832C377.624 538.357 379.066 538.605 379.847 539.385L397.799 557.332C398.58 558.113 398.405 559.132 397.408 559.607L390.349 562.973Z" fill="#465E82"/>
<path fill-rule="evenodd" clip-rule="evenodd" d="M458.633 530.413C457.636 530.888 456.195 530.64 455.413 529.859L404.559 479.019C403.777 478.238 403.952 477.22 404.949 476.744L412.008 473.378C413.005 472.903 414.447 473.15 415.228 473.931L466.083 524.772C466.864 525.553 466.689 526.571 465.692 527.047L458.633 530.413Z" fill="#465E82"/>
<path fill-rule="evenodd" clip-rule="evenodd" d="M339.135 587.393C338.138 587.869 336.697 587.621 335.916 586.84L304.11 555.043C303.329 554.262 303.504 553.244 304.501 552.768L311.559 549.402C312.557 548.927 313.998 549.175 314.779 549.955L346.585 581.752C347.366 582.533 347.191 583.552 346.194 584.027L339.135 587.393Z" fill="#465E82"/>
<path fill-rule="evenodd" clip-rule="evenodd" d="M407.42 554.833C406.423 555.308 404.982 555.06 404.201 554.279L365.468 515.558C364.687 514.777 364.862 513.758 365.859 513.283L372.918 509.917C373.915 509.441 375.356 509.689 376.137 510.47L414.87 549.192C415.651 549.973 415.476 550.991 414.479 551.467L407.42 554.833Z" fill="#465E82"/>
<path fill-rule="evenodd" clip-rule="evenodd" d="M475.704 522.272C474.707 522.747 473.266 522.5 472.485 521.719L440.679 489.922C439.898 489.141 440.073 488.123 441.07 487.647L448.129 484.281C449.126 483.806 450.567 484.053 451.348 484.834L483.154 516.631C483.935 517.412 483.76 518.431 482.763 518.906L475.704 522.272Z" fill="#465E82"/>
<path fill-rule="evenodd" clip-rule="evenodd" d="M356.207 579.252C355.21 579.728 353.768 579.48 352.987 578.699L335.035 560.752C334.254 559.971 334.429 558.953 335.426 558.478L342.485 555.112C343.482 554.636 344.924 554.884 345.705 555.665L363.657 573.612C364.438 574.393 364.263 575.411 363.266 575.886L356.207 579.252Z" fill="#465E82"/>
<path fill-rule="evenodd" clip-rule="evenodd" d="M424.492 546.692C423.495 547.167 422.053 546.92 421.272 546.139L392.064 516.939C391.282 516.158 391.457 515.139 392.454 514.664L399.513 511.298C400.51 510.823 401.952 511.07 402.733 511.851L431.941 541.051C432.722 541.832 432.547 542.851 431.55 543.326L424.492 546.692Z" fill="#465E82"/>
<path fill-rule="evenodd" clip-rule="evenodd" d="M492.775 514.131C491.778 514.607 490.337 514.359 489.556 513.578L443.03 467.066C442.249 466.285 442.424 465.266 443.421 464.791L450.48 461.425C451.477 460.95 452.918 461.197 453.699 461.978L500.225 508.491C501.006 509.271 500.831 510.29 499.834 510.765L492.775 514.131Z" fill="#465E82"/>
<path fill-rule="evenodd" clip-rule="evenodd" d="M509.847 505.991C508.85 506.466 507.408 506.218 506.627 505.438L451.443 450.269C450.662 449.488 450.837 448.47 451.834 447.994L458.893 444.628C459.89 444.153 461.331 444.4 462.113 445.181L517.297 500.35C518.078 501.131 517.903 502.149 516.906 502.625L509.847 505.991Z" fill="#465E82"/>
<path fill-rule="evenodd" clip-rule="evenodd" d="M373.278 571.114C372.281 571.589 370.839 571.342 370.058 570.561L321.801 522.317C321.02 521.536 321.195 520.518 322.192 520.042L329.25 516.676C330.247 516.201 331.689 516.448 332.47 517.229L380.727 565.473C381.509 566.254 381.334 567.272 380.337 567.748L373.278 571.114Z" fill="#465E82"/>
<path fill-rule="evenodd" clip-rule="evenodd" d="M441.562 538.553C440.565 539.029 439.123 538.781 438.342 538L379.694 479.369C378.913 478.588 379.088 477.57 380.085 477.094L387.144 473.728C388.141 473.253 389.583 473.5 390.364 474.281L449.012 532.912C449.793 533.693 449.618 534.712 448.621 535.187L441.562 538.553Z" fill="#465E82"/>
<path fill-rule="evenodd" clip-rule="evenodd" d="M526.918 497.852C525.921 498.327 524.479 498.08 523.698 497.299L452.062 425.684C451.281 424.903 451.456 423.884 452.453 423.409L459.512 420.043C460.509 419.567 461.951 419.815 462.732 420.596L534.368 492.211C535.149 492.992 534.974 494.011 533.977 494.486L526.918 497.852Z" fill="#465E82"/>
<path fill-rule="evenodd" clip-rule="evenodd" d="M498.409 283.872C497.412 284.347 495.97 284.099 495.189 283.318L487.869 276.001C487.088 275.22 487.263 274.201 488.26 273.726L495.319 270.36C496.316 269.884 497.758 270.132 498.539 270.913L505.859 278.231C506.64 279.012 506.465 280.03 505.468 280.506L498.409 283.872Z" fill="#465E82"/>
<path fill-rule="evenodd" clip-rule="evenodd" d="M566.693 251.311C565.696 251.786 564.255 251.539 563.474 250.758L556.154 243.44C555.373 242.659 555.548 241.641 556.545 241.165L563.604 237.799C564.601 237.324 566.042 237.571 566.823 238.352L574.143 245.67C574.924 246.451 574.749 247.47 573.752 247.945L566.693 251.311Z" fill="#465E82"/>
<path fill-rule="evenodd" clip-rule="evenodd" d="M634.978 218.751C633.98 219.226 632.539 218.978 631.758 218.197L608.369 194.815C607.588 194.034 607.763 193.016 608.76 192.54L615.819 189.174C616.816 188.699 618.257 188.947 619.038 189.728L642.427 213.11C643.208 213.891 643.033 214.909 642.036 215.385L634.978 218.751Z" fill="#465E82"/>
<path fill-rule="evenodd" clip-rule="evenodd" d="M515.48 275.733C514.483 276.208 513.041 275.961 512.26 275.18L498.174 261.098C497.393 260.317 497.568 259.299 498.565 258.823L505.624 255.457C506.621 254.982 508.063 255.229 508.844 256.01L522.929 270.092C523.711 270.873 523.536 271.892 522.539 272.367L515.48 275.733Z" fill="#465E82"/>
<path fill-rule="evenodd" clip-rule="evenodd" d="M583.765 243.17C582.768 243.646 581.326 243.398 580.545 242.617L563.076 225.154C562.295 224.373 562.47 223.354 563.467 222.879L570.526 219.513C571.523 219.037 572.965 219.285 573.746 220.066L591.215 237.53C591.996 238.311 591.821 239.329 590.824 239.804L583.765 243.17Z" fill="#465E82"/>
<path fill-rule="evenodd" clip-rule="evenodd" d="M652.049 210.61C651.052 211.085 649.61 210.838 648.829 210.057L634.743 195.975C633.962 195.194 634.137 194.176 635.134 193.7L642.193 190.334C643.19 189.859 644.632 190.106 645.413 190.887L659.499 204.969C660.28 205.75 660.105 206.768 659.108 207.244L652.049 210.61Z" fill="#465E82"/>
<path fill-rule="evenodd" clip-rule="evenodd" d="M532.551 267.592C531.554 268.068 530.113 267.82 529.331 267.039L522.012 259.721C521.23 258.94 521.405 257.922 522.402 257.446L529.461 254.08C530.458 253.605 531.9 253.853 532.681 254.634L540.001 261.951C540.782 262.732 540.607 263.751 539.61 264.226L532.551 267.592Z" fill="#465E82"/>
<path fill-rule="evenodd" clip-rule="evenodd" d="M600.836 235.03C599.839 235.505 598.398 235.258 597.617 234.477L584.799 221.663C584.018 220.882 584.193 219.864 585.19 219.388L592.249 216.022C593.246 215.547 594.688 215.795 595.469 216.575L608.286 229.389C609.067 230.17 608.892 231.188 607.895 231.664L600.836 235.03Z" fill="#465E82"/>
<path fill-rule="evenodd" clip-rule="evenodd" d="M669.12 202.471C668.123 202.947 666.681 202.699 665.9 201.918L644.626 180.65C643.845 179.869 644.02 178.85 645.017 178.375L652.075 175.009C653.072 174.533 654.514 174.781 655.295 175.562L676.57 196.83C677.351 197.611 677.176 198.63 676.179 199.105L669.12 202.471Z" fill="#465E82"/>
<path fill-rule="evenodd" clip-rule="evenodd" d="M686.191 194.331C685.194 194.806 683.753 194.558 682.972 193.777L657.468 168.282C656.687 167.501 656.862 166.482 657.859 166.007L664.918 162.641C665.915 162.165 667.357 162.413 668.138 163.194L693.641 188.69C694.422 189.471 694.247 190.489 693.25 190.965L686.191 194.331Z" fill="#465E82"/>
<path fill-rule="evenodd" clip-rule="evenodd" d="M549.622 259.452C548.625 259.927 547.184 259.679 546.402 258.898L524.282 236.785C523.501 236.004 523.676 234.985 524.673 234.51L531.732 231.144C532.729 230.668 534.17 230.916 534.952 231.697L557.072 253.811C557.853 254.592 557.678 255.61 556.681 256.086L549.622 259.452Z" fill="#465E82"/>
<path fill-rule="evenodd" clip-rule="evenodd" d="M617.906 226.891C616.909 227.367 615.468 227.119 614.686 226.338L587.492 199.151C586.711 198.37 586.886 197.352 587.883 196.876L594.942 193.51C595.939 193.035 597.38 193.283 598.161 194.063L625.356 221.25C626.137 222.031 625.962 223.05 624.965 223.525L617.906 226.891Z" fill="#465E82"/>
<path fill-rule="evenodd" clip-rule="evenodd" d="M703.262 186.19C702.265 186.665 700.824 186.418 700.042 185.637L666.505 152.109C665.724 151.328 665.899 150.309 666.896 149.834L673.955 146.468C674.952 145.993 676.393 146.24 677.174 147.021L710.712 180.549C711.493 181.33 711.318 182.349 710.321 182.824L703.262 186.19Z" fill="#465E82"/>
<ellipse cx="25.1016" cy="25.0991" rx="25.1016" ry="25.0991" transform="matrix(0.902633 -0.430411 0.707207 0.707006 3.31641 297.492)" fill="#465E82"/>
<rect width="475.094" height="37.9547" rx="8" transform="matrix(0.902633 -0.430411 0.707207 0.707006 606.37 454.85)" fill="#213450"/>
<path fill-rule="evenodd" clip-rule="evenodd" d="M664.835 443.123C664.054 442.342 664.229 441.324 665.226 440.848L727.93 410.948C728.927 410.473 730.369 410.721 731.15 411.501L736.98 417.33C737.761 418.111 737.586 419.129 736.589 419.604L673.884 449.504C672.887 449.98 671.446 449.732 670.665 448.951L664.835 443.123Z" fill="#465E82"/>
<path fill-rule="evenodd" clip-rule="evenodd" d="M814.043 371.975C813.262 371.194 813.437 370.175 814.434 369.7L939.032 310.286C940.029 309.811 941.471 310.059 942.252 310.84L948.082 316.668C948.863 317.449 948.688 318.467 947.691 318.943L823.093 378.356C822.096 378.831 820.654 378.584 819.873 377.803L814.043 371.975Z" fill="#465E82"/>
<ellipse cx="8.57129" cy="8.57043" rx="8.57129" ry="8.57043" transform="matrix(0.902633 -0.430411 0.707207 0.707006 627.426 456.316)" fill="#465E82"/>
<rect width="475.094" height="37.9547" rx="8" transform="matrix(0.902633 -0.430411 0.707207 0.707006 571.736 420.227)" fill="#213450"/>
<path fill-rule="evenodd" clip-rule="evenodd" d="M630.2 408.5C629.419 407.719 629.594 406.701 630.591 406.225L664.559 390.028C665.556 389.552 666.998 389.8 667.779 390.581L673.609 396.409C674.39 397.19 674.215 398.209 673.218 398.684L639.25 414.881C638.253 415.357 636.811 415.109 636.03 414.328L630.2 408.5Z" fill="#465E82"/>
<path fill-rule="evenodd" clip-rule="evenodd" d="M779.409 337.352C778.628 336.571 778.803 335.552 779.8 335.077L850.24 301.488C851.238 301.012 852.679 301.26 853.46 302.041L859.29 307.869C860.071 308.65 859.896 309.668 858.899 310.144L788.458 343.733C787.461 344.208 786.02 343.961 785.238 343.18L779.409 337.352Z" fill="#465E82"/>
<ellipse cx="8.57129" cy="8.57042" rx="8.57129" ry="8.57042" transform="matrix(0.902633 -0.430411 0.707207 0.707006 592.792 421.693)" fill="#465E82"/>
<rect width="475.094" height="37.9547" rx="8" transform="matrix(0.902633 -0.430411 0.707207 0.707006 537.101 385.602)" fill="#213450"/>
<path fill-rule="evenodd" clip-rule="evenodd" d="M595.566 373.875C594.784 373.094 594.959 372.076 595.956 371.6L644.292 348.552C645.289 348.076 646.731 348.324 647.512 349.105L653.342 354.933C654.123 355.714 653.948 356.732 652.951 357.208L604.615 380.256C603.618 380.732 602.177 380.484 601.395 379.703L595.566 373.875Z" fill="#465E82"/>
<path fill-rule="evenodd" clip-rule="evenodd" d="M744.774 302.727C743.993 301.946 744.168 300.927 745.165 300.452L913.973 219.957C914.97 219.482 916.411 219.73 917.192 220.511L923.022 226.339C923.803 227.12 923.628 228.138 922.631 228.614L753.823 309.108C752.826 309.583 751.385 309.336 750.604 308.555L744.774 302.727Z" fill="#465E82"/>
<ellipse cx="8.57129" cy="8.57042" rx="8.57129" ry="8.57042" transform="matrix(0.902633 -0.430411 0.707207 0.707006 558.157 387.068)" fill="#465E82"/>
<rect width="475.094" height="37.9547" rx="8" transform="matrix(0.902633 -0.430411 0.707207 0.707006 502.466 350.977)" fill="#213450"/>
<path fill-rule="evenodd" clip-rule="evenodd" d="M560.931 339.25C560.15 338.469 560.325 337.451 561.322 336.975L632.868 302.859C633.865 302.384 635.307 302.631 636.088 303.412L641.918 309.24C642.699 310.021 642.524 311.04 641.527 311.515L569.98 345.631C568.983 346.107 567.542 345.859 566.761 345.078L560.931 339.25Z" fill="#465E82"/>
<path fill-rule="evenodd" clip-rule="evenodd" d="M710.139 268.102C709.358 267.321 709.533 266.302 710.53 265.827L817.444 214.846C818.441 214.37 819.883 214.618 820.664 215.399L826.494 221.227C827.275 222.008 827.1 223.027 826.103 223.502L719.189 274.483C718.192 274.958 716.75 274.711 715.969 273.93L710.139 268.102Z" fill="#465E82"/>
<ellipse cx="8.57129" cy="8.57043" rx="8.57129" ry="8.57043" transform="matrix(0.902633 -0.430411 0.707207 0.707006 523.522 352.443)" fill="#465E82"/>
<path d="M43.8441 303.737L43.8436 303.737C46.4728 302.483 46.86 299.722 44.7084 297.571C42.5564 295.42 38.6802 294.693 36.0507 295.946C33.4207 297.2 33.0339 299.96 35.1851 302.111L35.1848 302.111C37.336 304.262 41.2125 304.99 43.8417 303.736L43.8441 303.737ZM44.9573 304.85C42.0063 306.257 37.6071 310.557 40.5682 313.517L42.7947 315.743L60.4787 307.311L58.2522 305.085C55.291 302.125 47.9083 303.442 44.9573 304.85Z" fill="#213450"/>
</g>
<defs>
<filter id="filter0_d_1301_13659" x="-131.862" y="-118.061" width="1283.03" height="857.203" filterUnits="userSpaceOnUse" color-interpolation-filters="sRGB">
<feFlood flood-opacity="0" result="BackgroundImageFix"/>
<feColorMatrix in="SourceAlpha" type="matrix" values="0 0 0 0 0 0 0 0 0 0 0 0 0 0 0 0 0 0 127 0" result="hardAlpha"/>
<feMorphology radius="10" operator="erode" in="SourceAlpha" result="effect1_dropShadow_1301_13659"/>
<feOffset dy="25"/>
<feGaussianBlur stdDeviation="25"/>
<feColorMatrix type="matrix" values="0 0 0 0 0.021875 0 0 0 0 0.0395148 0 0 0 0 0.125 0 0 0 1 0"/>
<feBlend mode="normal" in2="BackgroundImageFix" result="effect1_dropShadow_1301_13659"/>
<feBlend mode="normal" in="SourceGraphic" in2="effect1_dropShadow_1301_13659" result="shape"/>
</filter>
</defs>
</svg>
