<svg width="632" height="376" viewBox="0 0 632 376" fill="none" xmlns="http://www.w3.org/2000/svg">
<rect width="632" height="376" fill="#071324"/>
<mask id="mask0_1301_13698" style="mask-type:alpha" maskUnits="userSpaceOnUse" x="0" y="0" width="632" height="376">
<rect width="632" height="376" fill="#EAD9CC"/>
</mask>
<g mask="url(#mask0_1301_13698)">
<g filter="url(#filter0_d_1301_13698)">
<rect width="962.521" height="458.277" rx="24" transform="matrix(0.902056 -0.43162 0.705989 0.708223 -595.117 169.395)" fill="#0F1E34"/>
</g>
<path fill-rule="evenodd" clip-rule="evenodd" d="M131.323 36.952C129.763 35.3875 130.114 33.3462 132.107 32.3927L348.026 -70.9212C350.019 -71.8747 352.898 -71.3793 354.458 -69.8147L359.383 -64.8739C360.943 -63.3094 360.592 -61.2681 358.599 -60.3146L142.68 42.9993C140.688 43.9528 137.808 43.4574 136.248 41.8929L131.323 36.952Z" fill="#465E82"/>
<path fill-rule="evenodd" clip-rule="evenodd" d="M-152.994 172.995C-154.554 171.43 -154.203 169.389 -152.21 168.436L22.3208 84.9253C24.3135 83.9718 27.1933 84.4672 28.7529 86.0318L33.6782 90.9726C35.2378 92.5371 34.8867 94.5784 32.8939 95.5319L-141.637 179.042C-143.63 179.996 -146.509 179.5 -148.069 177.936L-152.994 172.995Z" fill="#465E82"/>
<path fill-rule="evenodd" clip-rule="evenodd" d="M147.533 53.2133C146.753 52.431 146.929 51.4104 147.925 50.9336L246.887 3.58183C247.884 3.10508 249.323 3.35275 250.103 4.13504L254.328 8.37321C255.108 9.15549 254.932 10.1761 253.936 10.6529L154.974 58.0047C153.978 58.4815 152.538 58.2338 151.758 57.4515L147.533 53.2133Z" fill="#213450"/>
<path fill-rule="evenodd" clip-rule="evenodd" d="M157.401 63.1137C156.621 62.3314 156.797 61.3108 157.793 60.834L335.932 -24.4028C336.929 -24.8795 338.369 -24.6318 339.148 -23.8496L343.373 -19.6114C344.153 -18.8291 343.977 -17.8084 342.981 -17.3317L164.842 67.9051C163.846 68.3819 162.406 68.1342 161.626 67.3519L157.401 63.1137Z" fill="#213450"/>
<path fill-rule="evenodd" clip-rule="evenodd" d="M-126.916 199.155C-127.696 198.372 -127.52 197.352 -126.524 196.875L7.52794 132.733C8.52432 132.257 9.96422 132.504 10.744 133.287L14.9688 137.525C15.7487 138.307 15.5731 139.328 14.5767 139.804L-119.475 203.946C-120.471 204.423 -121.911 204.175 -122.691 203.393L-126.916 199.155Z" fill="#213450"/>
<rect width="288.258" height="157.751" rx="8" transform="matrix(0.902056 -0.43162 0.705989 0.708223 7.26025 -87.502)" fill="#213450"/>
<rect width="288.258" height="157.751" rx="8" transform="matrix(0.902056 -0.43162 0.705989 0.708223 -277.057 48.5391)" fill="#213450"/>
<rect width="603.446" height="30.9511" rx="8" transform="matrix(0.902056 -0.43162 0.705989 0.708223 -17.6624 308.754)" fill="#213450"/>
<path fill-rule="evenodd" clip-rule="evenodd" d="M30.192 299.436C29.4122 298.654 29.5878 297.633 30.5841 297.156L80.9602 273.052C81.9566 272.575 83.3965 272.823 84.1763 273.605L88.4011 277.843C89.1809 278.626 89.0054 279.646 88.009 280.123L37.6329 304.227C36.6365 304.704 35.1966 304.456 34.4168 303.674L30.192 299.436Z" fill="#465E82"/>
<path fill-rule="evenodd" clip-rule="evenodd" d="M151.657 241.317C150.877 240.535 151.052 239.514 152.049 239.037L252.81 190.824C253.806 190.348 255.246 190.595 256.026 191.378L260.251 195.616C261.031 196.398 260.855 197.419 259.859 197.895L159.098 246.108C158.101 246.585 156.661 246.337 155.881 245.555L151.657 241.317Z" fill="#465E82"/>
<path fill-rule="evenodd" clip-rule="evenodd" d="M353.198 144.883C352.418 144.101 352.594 143.08 353.59 142.604L454.351 94.3907C455.348 93.914 456.788 94.1617 457.568 94.9439L461.792 99.1821C462.572 99.9644 462.397 100.985 461.4 101.462L360.639 149.675C359.642 150.151 358.202 149.904 357.423 149.121L353.198 144.883Z" fill="#465E82"/>
<ellipse cx="6.98201" cy="6.98897" rx="6.98201" ry="6.98897" transform="matrix(0.902056 -0.43162 0.705989 0.708223 -0.521729 309.951)" fill="#465E82"/>
<rect width="603.446" height="30.9512" rx="8" transform="matrix(0.902056 -0.43162 0.705989 0.708223 -45.8574 280.471)" fill="#213450"/>
<path fill-rule="evenodd" clip-rule="evenodd" d="M1.99694 271.153C1.21712 270.37 1.39269 269.35 2.38907 268.873L29.372 255.962C30.3683 255.485 31.8082 255.733 32.588 256.515L36.8129 260.754C37.5927 261.536 37.4171 262.557 36.4207 263.033L9.43784 275.944C8.44146 276.421 7.00157 276.173 6.22175 275.391L1.99694 271.153Z" fill="#465E82"/>
<path fill-rule="evenodd" clip-rule="evenodd" d="M123.462 213.034C122.682 212.251 122.857 211.231 123.854 210.754L180.528 183.636C181.524 183.159 182.964 183.407 183.744 184.189L187.969 188.428C188.749 189.21 188.573 190.231 187.577 190.707L130.902 217.825C129.906 218.302 128.466 218.054 127.686 217.272L123.462 213.034Z" fill="#465E82"/>
<path fill-rule="evenodd" clip-rule="evenodd" d="M325.003 116.6C324.223 115.818 324.399 114.797 325.395 114.32L402.763 77.3008C403.76 76.8241 405.199 77.0717 405.979 77.854L410.204 82.0922C410.984 82.8745 410.808 83.8951 409.812 84.3719L332.444 121.391C331.447 121.868 330.007 121.621 329.228 120.838L325.003 116.6Z" fill="#465E82"/>
<rect width="603.446" height="30.9511" rx="8" transform="matrix(0.902056 -0.43162 0.705989 0.708223 -74.0525 252.186)" fill="#213450"/>
<path fill-rule="evenodd" clip-rule="evenodd" d="M-26.1981 242.868C-26.9779 242.085 -26.8024 241.065 -25.806 240.588L12.8735 222.08C13.8699 221.604 15.3098 221.851 16.0896 222.634L20.3144 226.872C21.0942 227.654 20.9186 228.675 19.9223 229.151L-18.7572 247.659C-19.7536 248.136 -21.1935 247.888 -21.9733 247.106L-26.1981 242.868Z" fill="#465E82"/>
<path fill-rule="evenodd" clip-rule="evenodd" d="M95.2665 184.748C94.4867 183.966 94.6622 182.946 95.6586 182.469L232.41 117.036C233.406 116.559 234.846 116.806 235.626 117.589L239.85 121.827C240.63 122.609 240.455 123.63 239.458 124.107L102.707 189.54C101.711 190.017 100.271 189.769 99.4913 188.987L95.2665 184.748Z" fill="#465E82"/>
<path fill-rule="evenodd" clip-rule="evenodd" d="M296.808 88.3149C296.028 87.5326 296.203 86.512 297.2 86.0352L338.579 66.2361C339.575 65.7594 341.015 66.007 341.795 66.7893L346.019 71.0275C346.799 71.8098 346.624 72.8304 345.627 73.3072L304.249 93.1063C303.252 93.583 301.812 93.3353 301.033 92.5531L296.808 88.3149Z" fill="#465E82"/>
<rect width="603.446" height="30.9511" rx="8" transform="matrix(0.902056 -0.43162 0.705989 0.708223 -102.248 223.902)" fill="#213450"/>
<path fill-rule="evenodd" clip-rule="evenodd" d="M-54.3932 214.584C-55.173 213.802 -54.9974 212.781 -54.0011 212.305L3.57292 184.756C4.56931 184.28 6.00919 184.527 6.78901 185.31L11.0138 189.548C11.7936 190.33 11.618 191.351 10.6217 191.828L-46.9523 219.376C-47.9487 219.853 -49.3886 219.605 -50.1684 218.823L-54.3932 214.584Z" fill="#465E82"/>
<path fill-rule="evenodd" clip-rule="evenodd" d="M67.0714 156.465C66.2916 155.683 66.4672 154.662 67.4635 154.186L153.829 112.861C154.826 112.384 156.265 112.632 157.045 113.414L161.27 117.652C162.05 118.435 161.874 119.455 160.878 119.932L74.5123 161.257C73.5159 161.733 72.076 161.486 71.2962 160.703L67.0714 156.465Z" fill="#465E82"/>
<path fill-rule="evenodd" clip-rule="evenodd" d="M268.613 60.0317C267.833 59.2494 268.008 58.2287 269.005 57.752L411.154 -10.2644C412.151 -10.7411 413.59 -10.4934 414.37 -9.71115L418.595 -5.47298C419.375 -4.6907 419.199 -3.67005 418.203 -3.1933L276.054 64.8231C275.057 65.2998 273.617 65.0521 272.837 64.2698L268.613 60.0317Z" fill="#465E82"/>
<g filter="url(#filter1_d_1301_13698)">
<rect width="308.206" height="388.387" rx="24" transform="matrix(0.902034 -0.431666 0.705943 0.708269 191.287 187.174)" fill="#0F1E34"/>
</g>
<path fill-rule="evenodd" clip-rule="evenodd" d="M322.088 277.075C320.528 275.511 320.88 273.469 322.872 272.516L442.516 215.26C444.509 214.307 447.388 214.802 448.948 216.367L452.463 219.894C454.023 221.458 453.672 223.5 451.679 224.453L332.035 281.709C330.042 282.662 327.163 282.167 325.603 280.602L322.088 277.075Z" fill="#465E82"/>
<path fill-rule="evenodd" clip-rule="evenodd" d="M447.548 402.948C445.988 401.384 446.339 399.342 448.332 398.389L624.658 314.008C626.651 313.055 629.53 313.55 631.09 315.115L634.605 318.642C636.165 320.206 635.813 322.248 633.821 323.201L457.495 407.582C455.502 408.535 452.622 408.04 451.063 406.475L447.548 402.948Z" fill="#465E82"/>
<path fill-rule="evenodd" clip-rule="evenodd" d="M335.478 290.508C334.698 289.726 334.873 288.705 335.87 288.228L475.317 221.497C476.313 221.02 477.753 221.267 478.532 222.05L481.347 224.874C482.127 225.656 481.952 226.677 480.955 227.154L341.508 293.886C340.512 294.362 339.072 294.115 338.292 293.332L335.478 290.508Z" fill="#213450"/>
<path fill-rule="evenodd" clip-rule="evenodd" d="M460.937 416.381C460.158 415.599 460.333 414.578 461.329 414.102L617.871 339.189C618.867 338.712 620.307 338.96 621.087 339.742L623.902 342.566C624.681 343.349 624.506 344.369 623.509 344.846L466.968 419.759C465.972 420.236 464.532 419.988 463.752 419.206L460.937 416.381Z" fill="#213450"/>
<path fill-rule="evenodd" clip-rule="evenodd" d="M343.936 298.995C343.156 298.212 343.331 297.192 344.328 296.715L531.459 207.163C532.456 206.687 533.896 206.934 534.675 207.717L537.49 210.541C538.27 211.323 538.094 212.344 537.098 212.821L349.966 302.372C348.97 302.849 347.53 302.601 346.75 301.819L343.936 298.995Z" fill="#213450"/>
<path fill-rule="evenodd" clip-rule="evenodd" d="M469.395 424.868C468.616 424.085 468.791 423.065 469.787 422.588L581.343 369.203C582.339 368.726 583.779 368.974 584.559 369.756L587.374 372.581C588.154 373.363 587.978 374.384 586.982 374.86L475.426 428.245C474.43 428.722 472.99 428.474 472.21 427.692L469.395 424.868Z" fill="#213450"/>
<rect width="246.365" height="105.833" rx="8" transform="matrix(0.902034 -0.431666 0.705943 0.708269 236.799 191.506)" fill="#213450"/>
<rect width="246.365" height="105.833" rx="8" transform="matrix(0.902034 -0.431666 0.705943 0.708269 362.259 317.379)" fill="#213450"/>
<path d="M386.471 155.393L358.193 168.925L358.192 168.925C355.071 170.422 354.538 173.636 357.001 176.11L374.856 194.024L374.854 194.024C377.321 196.495 381.848 197.288 384.973 195.797L413.251 182.264L413.25 182.265C416.369 180.768 416.902 177.554 414.442 175.08L396.586 157.166C394.118 154.694 389.591 153.902 386.466 155.393L386.471 155.393ZM383.866 163.254L383.865 163.255C386.206 162.133 389.605 162.729 391.454 164.584C393.303 166.438 392.902 168.852 390.56 169.972C388.218 171.093 384.819 170.498 382.971 168.643L382.97 168.644C381.123 166.789 381.523 164.377 383.862 163.255L383.866 163.254ZM382.744 193.557L382.743 193.557C381.18 194.304 378.916 193.908 377.683 192.67L372.966 187.938L375.467 178.028L375.466 178.027C375.969 176.045 378.574 174.885 381.414 175.378L391.673 177.166L389.491 190.326L382.744 193.557ZM411.618 176.432C412.851 177.668 412.584 179.277 411.022 180.024L393.492 188.413L395.754 174.782L395.753 174.781C396.268 172.974 398.566 171.867 401.189 172.163L408.119 172.921L411.618 176.432Z" fill="#465E82"/>
<path d="M511.931 281.268L483.653 294.8L483.652 294.8C480.531 296.297 479.998 299.511 482.46 301.985L500.315 319.899L500.314 319.899C502.781 322.37 507.308 323.163 510.432 321.672L538.71 308.139L538.71 308.14C541.829 306.643 542.362 303.429 539.901 300.955L522.046 283.041C519.578 280.569 515.051 279.777 511.926 281.268L511.931 281.268ZM509.325 289.129L509.324 289.13C511.665 288.008 515.065 288.604 516.914 290.459C518.762 292.313 518.362 294.727 516.02 295.847C513.677 296.968 510.279 296.373 508.431 294.518L508.43 294.519C506.583 292.664 506.983 290.252 509.322 289.13L509.325 289.129ZM508.204 319.432L508.203 319.432C506.64 320.179 504.376 319.783 503.142 318.545L498.426 313.813L500.927 303.903L500.926 303.902C501.429 301.92 504.034 300.76 506.873 301.253L517.133 303.041L514.95 316.201L508.204 319.432ZM537.078 302.307C538.31 303.543 538.043 305.152 536.482 305.899L518.952 314.288L521.213 300.657L521.213 300.656C521.728 298.849 524.026 297.742 526.648 298.038L533.579 298.796L537.078 302.307Z" fill="#465E82"/>
</g>
<defs>
<filter id="filter0_d_1301_13698" x="-624.016" y="-253.6" width="1249.58" height="805.107" filterUnits="userSpaceOnUse" color-interpolation-filters="sRGB">
<feFlood flood-opacity="0" result="BackgroundImageFix"/>
<feColorMatrix in="SourceAlpha" type="matrix" values="0 0 0 0 0 0 0 0 0 0 0 0 0 0 0 0 0 0 127 0" result="hardAlpha"/>
<feMorphology radius="10" operator="erode" in="SourceAlpha" result="effect1_dropShadow_1301_13698"/>
<feOffset dy="25"/>
<feGaussianBlur stdDeviation="25"/>
<feColorMatrix type="matrix" values="0 0 0 0 0.021875 0 0 0 0 0.0395148 0 0 0 0 0.125 0 0 0 1 0"/>
<feBlend mode="normal" in2="BackgroundImageFix" result="effect1_dropShadow_1301_13698"/>
<feBlend mode="normal" in="SourceGraphic" in2="effect1_dropShadow_1301_13698" result="shape"/>
</filter>
<filter id="filter1_d_1301_13698" x="162.387" y="46.5801" width="609.992" height="473.227" filterUnits="userSpaceOnUse" color-interpolation-filters="sRGB">
<feFlood flood-opacity="0" result="BackgroundImageFix"/>
<feColorMatrix in="SourceAlpha" type="matrix" values="0 0 0 0 0 0 0 0 0 0 0 0 0 0 0 0 0 0 127 0" result="hardAlpha"/>
<feMorphology radius="10" operator="erode" in="SourceAlpha" result="effect1_dropShadow_1301_13698"/>
<feOffset dy="25"/>
<feGaussianBlur stdDeviation="25"/>
<feColorMatrix type="matrix" values="0 0 0 0 0.021875 0 0 0 0 0.0395148 0 0 0 0 0.125 0 0 0 1 0"/>
<feBlend mode="normal" in2="BackgroundImageFix" result="effect1_dropShadow_1301_13698"/>
<feBlend mode="normal" in="SourceGraphic" in2="effect1_dropShadow_1301_13698" result="shape"/>
</filter>
</defs>
</svg>
