<svg width="632" height="376" viewBox="0 0 632 376" fill="none" xmlns="http://www.w3.org/2000/svg">
<rect width="632" height="376" fill="#071324"/>
<mask id="mask0_1301_13676" style="mask-type:alpha" maskUnits="userSpaceOnUse" x="0" y="0" width="632" height="376">
<rect width="632" height="376" fill="#EAD9CC"/>
</mask>
<g mask="url(#mask0_1301_13676)">
<g filter="url(#filter0_d_1301_13676)">
<rect width="308.206" height="388.387" rx="24" transform="matrix(0.902056 -0.43162 0.705989 0.708223 -75.3104 210.23)" fill="#0F1E34"/>
</g>
<path fill-rule="evenodd" clip-rule="evenodd" d="M130.4 248.622C128.84 247.057 129.191 245.016 131.184 244.063L248.131 188.105C250.124 187.152 253.004 187.647 254.564 189.211L259.489 194.152C261.048 195.717 260.697 197.758 258.705 198.712L141.757 254.669C139.764 255.623 136.885 255.127 135.325 253.563L130.4 248.622Z" fill="#465E82"/>
<path fill-rule="evenodd" clip-rule="evenodd" d="M146.61 264.883C145.83 264.101 146.005 263.08 147.002 262.604L213.573 230.75C214.57 230.273 216.009 230.521 216.789 231.303L221.014 235.542C221.794 236.324 221.618 237.344 220.622 237.821L154.051 269.675C153.054 270.151 151.614 269.904 150.835 269.121L146.61 264.883Z" fill="#213450"/>
<path fill-rule="evenodd" clip-rule="evenodd" d="M156.478 274.784C155.698 274.001 155.874 272.981 156.87 272.504L272.927 216.972C273.923 216.496 275.363 216.743 276.143 217.526L280.368 221.764C281.148 222.546 280.972 223.567 279.976 224.044L163.919 279.575C162.922 280.052 161.483 279.804 160.703 279.022L156.478 274.784Z" fill="#213450"/>
<path fill-rule="evenodd" clip-rule="evenodd" d="M166.346 284.682C165.566 283.9 165.742 282.879 166.738 282.402L257.603 238.925C258.599 238.448 260.039 238.696 260.819 239.478L265.043 243.717C265.823 244.499 265.648 245.52 264.651 245.996L173.787 289.473C172.791 289.95 171.351 289.703 170.571 288.92L166.346 284.682Z" fill="#213450"/>
<rect width="75.8047" height="67.8928" rx="8" transform="matrix(0.902056 -0.43162 0.705989 0.708223 40.6909 285.273)" fill="#213450"/>
<path d="M99.3886 280.166L81.393 288.776L81.3924 288.777C79.4064 289.729 79.0576 291.764 80.6127 293.327L91.8905 304.64L91.8895 304.64C93.4476 306.201 96.3189 306.696 98.3074 305.747L116.303 297.136L116.302 297.136C118.288 296.184 118.636 294.148 117.082 292.586L105.804 281.273C104.245 279.712 101.374 279.217 99.3854 280.166L99.3886 280.166ZM97.7091 285.147L97.7085 285.147C99.1983 284.433 101.355 284.805 102.522 285.977C103.69 287.148 103.428 288.676 101.938 289.389C100.447 290.103 98.2912 289.731 97.1238 288.56L97.1232 288.56C95.9569 287.388 96.2186 285.861 97.707 285.147L97.7091 285.147ZM96.8999 304.332L96.8993 304.332C95.9046 304.808 94.4684 304.56 93.6895 303.779L90.7102 300.79L92.3299 294.513L92.3295 294.512C92.6551 293.257 94.3124 292.518 96.1135 292.826L102.621 293.942L101.193 302.277L96.8999 304.332ZM115.285 293.446C116.064 294.227 115.889 295.246 114.895 295.722L103.74 301.059L105.219 292.426L105.219 292.426C105.552 291.281 107.014 290.577 108.678 290.76L113.075 291.229L115.285 293.446Z" fill="#465E82"/>
<path fill-rule="evenodd" clip-rule="evenodd" d="M188.905 307.311C187.345 305.747 187.696 303.706 189.689 302.752L306.636 246.794C308.629 245.841 311.509 246.336 313.068 247.901L317.994 252.842C319.553 254.406 319.202 256.448 317.209 257.401L200.262 313.359C198.269 314.312 195.389 313.817 193.83 312.252L188.905 307.311Z" fill="#465E82"/>
<path fill-rule="evenodd" clip-rule="evenodd" d="M205.114 323.573C204.335 322.79 204.51 321.77 205.507 321.293L272.078 289.44C273.074 288.963 274.514 289.211 275.294 289.993L279.519 294.231C280.299 295.013 280.123 296.034 279.127 296.511L212.555 328.364C211.559 328.841 210.119 328.593 209.339 327.811L205.114 323.573Z" fill="#213450"/>
<path fill-rule="evenodd" clip-rule="evenodd" d="M214.983 333.473C214.203 332.691 214.378 331.67 215.375 331.193L331.432 275.662C332.428 275.185 333.868 275.433 334.648 276.215L338.873 280.453C339.652 281.236 339.477 282.256 338.48 282.733L222.424 338.264C221.427 338.741 219.987 338.494 219.207 337.711L214.983 333.473Z" fill="#213450"/>
<path fill-rule="evenodd" clip-rule="evenodd" d="M224.851 343.372C224.071 342.589 224.247 341.569 225.243 341.092L316.107 297.615C317.104 297.138 318.544 297.386 319.323 298.168L323.548 302.406C324.328 303.188 324.153 304.209 323.156 304.686L232.292 348.163C231.295 348.64 229.856 348.392 229.076 347.61L224.851 343.372Z" fill="#213450"/>
<rect width="75.8047" height="67.8928" rx="8" transform="matrix(0.902056 -0.43162 0.705989 0.708223 99.1957 343.963)" fill="#213450"/>
<path d="M157.893 338.855L139.898 347.466L139.897 347.466C137.911 348.418 137.562 350.454 139.118 352.016L150.395 363.33L150.394 363.33C151.952 364.89 154.824 365.385 156.812 364.436L174.808 355.826L174.807 355.826C176.792 354.873 177.141 352.838 175.587 351.275L164.309 339.962C162.75 338.401 159.879 337.906 157.89 338.855L157.893 338.855ZM156.214 343.836L156.213 343.836C157.703 343.123 159.859 343.495 161.027 344.666C162.195 345.837 161.933 347.366 160.442 348.079C158.952 348.792 156.796 348.42 155.629 347.249L155.628 347.25C154.462 346.078 154.723 344.551 156.212 343.836L156.214 343.836ZM155.405 363.022L155.404 363.022C154.409 363.497 152.973 363.25 152.194 362.468L149.215 359.48L150.835 353.202L150.834 353.202C151.16 351.946 152.817 351.207 154.618 351.515L161.126 352.632L159.698 360.966L155.405 363.022ZM173.79 352.136C174.568 352.917 174.394 353.936 173.4 354.411L162.245 359.749L163.724 351.116L163.723 351.115C164.056 349.97 165.519 349.266 167.183 349.45L171.58 349.919L173.79 352.136Z" fill="#465E82"/>
<path fill-rule="evenodd" clip-rule="evenodd" d="M247.409 366.001C245.85 364.436 246.201 362.395 248.194 361.441L365.141 305.484C367.134 304.53 370.014 305.026 371.573 306.59L376.498 311.531C378.058 313.096 377.707 315.137 375.714 316.091L258.767 372.048C256.774 373.002 253.894 372.506 252.335 370.942L247.409 366.001Z" fill="#465E82"/>
<path fill-rule="evenodd" clip-rule="evenodd" d="M263.619 382.262C262.839 381.48 263.015 380.459 264.011 379.982L330.583 348.129C331.579 347.652 333.019 347.9 333.799 348.682L338.024 352.92C338.803 353.703 338.628 354.723 337.631 355.2L271.06 387.054C270.064 387.53 268.624 387.283 267.844 386.5L263.619 382.262Z" fill="#213450"/>
<path fill-rule="evenodd" clip-rule="evenodd" d="M273.487 392.163C272.708 391.38 272.883 390.36 273.88 389.883L389.936 334.351C390.933 333.875 392.373 334.122 393.153 334.905L397.377 339.143C398.157 339.925 397.982 340.946 396.985 341.422L280.928 396.954C279.932 397.431 278.492 397.183 277.712 396.401L273.487 392.163Z" fill="#213450"/>
<path fill-rule="evenodd" clip-rule="evenodd" d="M283.356 402.061C282.576 401.279 282.751 400.258 283.748 399.781L374.612 356.304C375.609 355.827 377.048 356.075 377.828 356.857L382.053 361.095C382.833 361.878 382.657 362.898 381.661 363.375L290.797 406.852C289.8 407.329 288.36 407.081 287.58 406.299L283.356 402.061Z" fill="#213450"/>
<rect width="75.8047" height="67.8928" rx="8" transform="matrix(0.902056 -0.43162 0.705989 0.708223 157.7 402.652)" fill="#213450"/>
<path fill-rule="evenodd" clip-rule="evenodd" d="M35.6649 198.911C34.1053 197.346 34.4564 195.305 36.4492 194.352L142.6 143.56C144.592 142.607 147.472 143.102 149.032 144.667L153.957 149.607C155.517 151.172 155.166 153.213 153.173 154.167L47.0223 204.958C45.0295 205.912 42.1498 205.416 40.5901 203.852L35.6649 198.911Z" fill="#465E82"/>
<path fill-rule="evenodd" clip-rule="evenodd" d="M55.4449 228.086C54.6651 227.304 54.8407 226.283 55.8371 225.807L177.292 167.692C178.289 167.215 179.729 167.463 180.509 168.245L186.143 173.898C186.923 174.68 186.747 175.701 185.751 176.177L64.2956 234.292C63.2992 234.769 61.8593 234.521 61.0795 233.739L55.4449 228.086Z" fill="#213450"/>
<path fill-rule="evenodd" clip-rule="evenodd" d="M27.2668 223.815C26.487 223.033 26.6626 222.012 27.659 221.535L181.505 147.922C182.501 147.445 183.941 147.693 184.721 148.475L190.356 154.128C191.135 154.91 190.96 155.931 189.963 156.408L36.1175 230.02C35.1211 230.497 33.6812 230.25 32.9014 229.467L27.2668 223.815Z" fill="#213450"/>
<g filter="url(#filter1_d_1301_13676)">
<rect width="962.521" height="458.277" rx="24" transform="matrix(0.902056 -0.43162 0.705989 0.708223 191.55 188.768)" fill="#0F1E34"/>
</g>
<path fill-rule="evenodd" clip-rule="evenodd" d="M633.673 192.368C632.113 190.803 632.464 188.762 634.457 187.809L808.987 104.298C810.98 103.345 813.86 103.84 815.42 105.405L820.345 110.346C821.905 111.91 821.553 113.951 819.561 114.905L645.03 198.415C643.037 199.369 640.157 198.873 638.598 197.309L633.673 192.368Z" fill="#465E82"/>
<rect width="288.257" height="157.751" rx="8" transform="matrix(0.902056 -0.43162 0.705989 0.708223 509.61 67.9121)" fill="#213450"/>
<rect width="266.314" height="288.545" rx="8" transform="matrix(0.902056 -0.43162 0.705989 0.708223 318.125 274.416)" fill="#213450"/>
<rect width="219.435" height="107.83" rx="8" transform="matrix(0.902056 -0.43162 0.705989 0.708223 454.613 379.344)" fill="#0F1E34"/>
<rect width="266.314" height="78.8755" rx="8" transform="matrix(0.902056 -0.43162 0.705989 0.708223 240.588 196.635)" fill="#213450"/>
<path fill-rule="evenodd" clip-rule="evenodd" d="M423.466 320.102C421.906 318.538 422.257 316.497 424.25 315.543L471.018 293.165C473.011 292.212 475.891 292.707 477.45 294.272L478.851 295.677C480.411 297.242 480.06 299.283 478.067 300.236L431.299 322.614C429.306 323.568 426.426 323.072 424.867 321.508L423.466 320.102Z" fill="#465E82"/>
<path fill-rule="evenodd" clip-rule="evenodd" d="M437.563 334.245C436.004 332.68 436.355 330.639 438.348 329.686L485.116 307.308C487.108 306.354 489.988 306.85 491.548 308.414L492.949 309.82C494.508 311.384 494.157 313.425 492.164 314.379L445.396 336.757C443.404 337.71 440.524 337.215 438.964 335.65L437.563 334.245Z" fill="#465E82"/>
<rect width="9.9743" height="9.98424" rx="4.98715" transform="matrix(0.902056 -0.43162 0.705989 0.708223 402.647 325.879)" fill="#465E82"/>
<rect width="9.9743" height="9.98424" rx="4.98715" transform="matrix(0.902056 -0.43162 0.705989 0.708223 416.745 340.021)" fill="#465E82"/>
<path fill-rule="evenodd" clip-rule="evenodd" d="M359.654 282.751C358.095 281.186 358.446 279.145 360.439 278.191L491.782 215.346C493.775 214.392 496.654 214.888 498.214 216.452L503.139 221.393C504.699 222.958 504.348 224.999 502.355 225.952L371.012 288.798C369.019 289.752 366.139 289.256 364.58 287.692L359.654 282.751Z" fill="#465E82"/>
<path fill-rule="evenodd" clip-rule="evenodd" d="M335.008 180.706C333.448 179.141 333.799 177.1 335.792 176.147L467.135 113.301C469.128 112.347 472.008 112.843 473.567 114.407L478.492 119.348C480.052 120.913 479.701 122.954 477.708 123.907L346.365 186.753C344.372 187.707 341.492 187.211 339.933 185.647L335.008 180.706Z" fill="#465E82"/>
<path fill-rule="evenodd" clip-rule="evenodd" d="M375.864 299.012C375.084 298.23 375.26 297.209 376.256 296.732L450.925 261.004C451.922 260.528 453.362 260.775 454.141 261.558L458.366 265.796C459.146 266.578 458.971 267.599 457.974 268.076L383.305 303.804C382.309 304.28 380.869 304.033 380.089 303.25L375.864 299.012Z" fill="#0F1E34"/>
<path fill-rule="evenodd" clip-rule="evenodd" d="M348.398 194.139C347.618 193.357 347.794 192.336 348.79 191.859L423.459 156.131C424.455 155.655 425.895 155.902 426.675 156.685L430.9 160.923C431.68 161.705 431.504 162.726 430.508 163.202L355.839 198.93C354.842 199.407 353.403 199.16 352.623 198.377L348.398 194.139Z" fill="#0F1E34"/>
<path fill-rule="evenodd" clip-rule="evenodd" d="M388.552 311.739C387.772 310.956 387.948 309.936 388.944 309.459L490.605 260.816C491.602 260.339 493.042 260.587 493.821 261.369L498.046 265.607C498.826 266.389 498.65 267.41 497.654 267.887L395.993 316.53C394.997 317.007 393.557 316.759 392.777 315.977L388.552 311.739Z" fill="#0F1E34"/>
<path fill-rule="evenodd" clip-rule="evenodd" d="M649.072 389.691C648.076 390.168 646.636 389.921 645.856 389.138L604.978 348.13C604.198 347.348 604.373 346.328 605.37 345.851L610.447 343.421C611.443 342.945 612.883 343.192 613.663 343.975L654.542 384.982C655.321 385.765 655.146 386.785 654.149 387.262L649.072 389.691Z" fill="#465E82"/>
<path fill-rule="evenodd" clip-rule="evenodd" d="M607.382 409.641C606.385 410.117 604.945 409.87 604.166 409.087L573.155 377.979C572.376 377.197 572.551 376.176 573.548 375.7L578.625 373.27C579.621 372.793 581.061 373.041 581.841 373.823L612.851 404.932C613.631 405.714 613.455 406.734 612.459 407.211L607.382 409.641Z" fill="#465E82"/>
<path fill-rule="evenodd" clip-rule="evenodd" d="M621.279 402.99C620.282 403.467 618.842 403.219 618.063 402.437L594.806 379.107C594.026 378.325 594.202 377.304 595.198 376.827L600.276 374.398C601.272 373.921 602.712 374.169 603.492 374.951L626.748 398.281C627.528 399.063 627.352 400.084 626.356 400.561L621.279 402.99Z" fill="#465E82"/>
<path fill-rule="evenodd" clip-rule="evenodd" d="M635.175 396.342C634.179 396.819 632.739 396.571 631.959 395.789L584.737 348.417C583.957 347.635 584.132 346.614 585.129 346.137L590.206 343.708C591.202 343.231 592.642 343.479 593.422 344.261L640.644 391.633C641.424 392.415 641.249 393.436 640.252 393.912L635.175 396.342Z" fill="#465E82"/>
<ellipse cx="20.4473" cy="20.4677" rx="20.4473" ry="20.4677" transform="matrix(0.902056 -0.43162 0.705989 0.708223 278.079 199.584)" fill="#465E82"/>
<path d="M311.071 204.686L311.071 204.686C313.211 203.662 313.526 201.407 311.775 199.649C310.023 197.892 306.867 197.298 304.727 198.322C302.586 199.346 302.271 201.601 304.022 203.358L304.022 203.358C305.773 205.115 308.929 205.709 311.069 204.685L311.071 204.686ZM311.977 205.595C309.575 206.744 305.994 210.257 308.405 212.675L310.217 214.494L324.613 207.605L322.8 205.787C320.39 203.369 314.38 204.445 311.977 205.595Z" fill="#213450"/>
</g>
<defs>
<filter id="filter0_d_1301_13676" x="-104.21" y="69.6504" width="610.015" height="473.197" filterUnits="userSpaceOnUse" color-interpolation-filters="sRGB">
<feFlood flood-opacity="0" result="BackgroundImageFix"/>
<feColorMatrix in="SourceAlpha" type="matrix" values="0 0 0 0 0 0 0 0 0 0 0 0 0 0 0 0 0 0 127 0" result="hardAlpha"/>
<feMorphology radius="10" operator="erode" in="SourceAlpha" result="effect1_dropShadow_1301_13676"/>
<feOffset dy="25"/>
<feGaussianBlur stdDeviation="25"/>
<feColorMatrix type="matrix" values="0 0 0 0 0.021875 0 0 0 0 0.0395148 0 0 0 0 0.125 0 0 0 1 0"/>
<feBlend mode="normal" in2="BackgroundImageFix" result="effect1_dropShadow_1301_13676"/>
<feBlend mode="normal" in="SourceGraphic" in2="effect1_dropShadow_1301_13676" result="shape"/>
</filter>
<filter id="filter1_d_1301_13676" x="162.651" y="-234.227" width="1249.58" height="805.107" filterUnits="userSpaceOnUse" color-interpolation-filters="sRGB">
<feFlood flood-opacity="0" result="BackgroundImageFix"/>
<feColorMatrix in="SourceAlpha" type="matrix" values="0 0 0 0 0 0 0 0 0 0 0 0 0 0 0 0 0 0 127 0" result="hardAlpha"/>
<feMorphology radius="10" operator="erode" in="SourceAlpha" result="effect1_dropShadow_1301_13676"/>
<feOffset dy="25"/>
<feGaussianBlur stdDeviation="25"/>
<feColorMatrix type="matrix" values="0 0 0 0 0.021875 0 0 0 0 0.0395148 0 0 0 0 0.125 0 0 0 1 0"/>
<feBlend mode="normal" in2="BackgroundImageFix" result="effect1_dropShadow_1301_13676"/>
<feBlend mode="normal" in="SourceGraphic" in2="effect1_dropShadow_1301_13676" result="shape"/>
</filter>
</defs>
</svg>
