<svg width="632" height="376" viewBox="0 0 632 376" fill="none" xmlns="http://www.w3.org/2000/svg">
<rect width="632" height="376" fill="#071324"/>
<mask id="mask0_1301_13682" style="mask-type:alpha" maskUnits="userSpaceOnUse" x="0" y="0" width="632" height="376">
<rect width="632" height="376" fill="#EAD9CC"/>
</mask>
<g mask="url(#mask0_1301_13682)">
<g filter="url(#filter0_d_1301_13682)">
<rect width="747.076" height="458.277" rx="24" transform="matrix(0.90205 -0.431632 0.705976 0.708235 -315.183 255.285)" fill="#0F1E34"/>
</g>
<rect width="266.314" height="288.545" rx="8" transform="matrix(0.90205 -0.431632 0.705976 0.708235 -188.611 340.936)" fill="#213450"/>
<rect width="387.003" height="220.652" rx="8" transform="matrix(0.90205 -0.431632 0.705976 0.708235 2.87427 134.426)" fill="#213450"/>
<rect width="219.435" height="107.83" rx="8" transform="matrix(0.90205 -0.431632 0.705976 0.708235 -52.1243 445.863)" fill="#0F1E34"/>
<rect width="219.435" height="83.8676" rx="8" transform="matrix(0.90205 -0.431632 0.705976 0.708235 108.347 208.24)" fill="#0F1E34"/>
<rect width="266.314" height="78.8755" rx="8" transform="matrix(0.90205 -0.431632 0.705976 0.708235 -266.146 263.152)" fill="#213450"/>
<path fill-rule="evenodd" clip-rule="evenodd" d="M407.742 143.315C406.183 141.751 406.534 139.709 408.527 138.756L455.294 116.378C457.287 115.424 460.167 115.919 461.726 117.484L463.127 118.889C464.687 120.454 464.336 122.495 462.343 123.449L415.575 145.827C413.583 146.781 410.703 146.285 409.143 144.721L407.742 143.315Z" fill="#465E82"/>
<path fill-rule="evenodd" clip-rule="evenodd" d="M392.236 127.759C390.676 126.194 391.027 124.153 393.02 123.199L439.787 100.821C441.78 99.8673 444.66 100.363 446.219 101.927L447.62 103.333C449.18 104.897 448.829 106.939 446.836 107.892L400.068 130.27C398.076 131.224 395.196 130.729 393.636 129.164L392.236 127.759Z" fill="#465E82"/>
<path fill-rule="evenodd" clip-rule="evenodd" d="M377.433 112.909C375.874 111.345 376.225 109.303 378.218 108.35L424.985 85.9713C426.978 85.0177 429.858 85.5131 431.417 87.0777L432.818 88.483C434.378 90.0476 434.027 92.0889 432.034 93.0425L385.266 115.421C383.273 116.374 380.394 115.879 378.834 114.314L377.433 112.909Z" fill="#465E82"/>
<path fill-rule="evenodd" clip-rule="evenodd" d="M362.631 98.0595C361.071 96.4949 361.423 94.4536 363.415 93.5L410.183 71.1217C412.176 70.1681 415.055 70.6635 416.615 72.2281L418.016 73.6334C419.575 75.198 419.224 77.2393 417.232 78.1929L370.464 100.571C368.471 101.525 365.591 101.029 364.032 99.4648L362.631 98.0595Z" fill="#465E82"/>
<rect width="9.9743" height="9.98424" rx="4.98715" transform="matrix(0.90205 -0.431632 0.705976 0.708235 386.924 149.094)" fill="#465E82"/>
<rect width="9.9743" height="9.98425" rx="4.98715" transform="matrix(0.90205 -0.431632 0.705976 0.708235 371.417 133.537)" fill="#465E82"/>
<rect width="9.9743" height="9.98424" rx="4.98715" transform="matrix(0.90205 -0.431632 0.705976 0.708235 356.615 118.688)" fill="#465E82"/>
<rect width="9.9743" height="9.98424" rx="4.98715" transform="matrix(0.90205 -0.431632 0.705976 0.708235 341.812 103.838)" fill="#465E82"/>
<path fill-rule="evenodd" clip-rule="evenodd" d="M43.6984 142.052C42.1388 140.487 42.49 138.446 44.4827 137.492L293.69 18.2461C295.683 17.2925 298.562 17.7879 300.122 19.3525L305.047 24.2934C306.607 25.858 306.256 27.8993 304.263 28.8529L55.0557 148.099C53.0629 149.053 50.1832 148.557 48.6236 146.993L43.6984 142.052Z" fill="#465E82"/>
<path fill-rule="evenodd" clip-rule="evenodd" d="M59.908 158.315C59.1282 157.533 59.3038 156.512 60.3002 156.035L242.937 68.6433C243.933 68.1666 245.373 68.4142 246.153 69.1965L250.377 73.4348C251.157 74.2171 250.982 75.2378 249.985 75.7145L67.3488 163.106C66.3524 163.583 64.9126 163.335 64.1328 162.553L59.908 158.315Z" fill="#0F1E34"/>
<path fill-rule="evenodd" clip-rule="evenodd" d="M74.0052 172.456C73.2254 171.673 73.401 170.653 74.3974 170.176L159.863 129.28C160.859 128.804 162.299 129.051 163.079 129.834L167.303 134.072C168.083 134.854 167.908 135.875 166.911 136.352L81.446 177.247C80.4496 177.724 79.0097 177.476 78.2299 176.694L74.0052 172.456Z" fill="#0F1E34"/>
<path fill-rule="evenodd" clip-rule="evenodd" d="M197.92 429.611C196.923 430.088 195.484 429.84 194.704 429.058L136.909 371.079C136.13 370.297 136.305 369.276 137.302 368.799L142.379 366.37C143.375 365.893 144.815 366.14 145.595 366.923L203.389 424.902C204.169 425.684 203.994 426.705 202.997 427.182L197.92 429.611Z" fill="#465E82"/>
<path fill-rule="evenodd" clip-rule="evenodd" d="M174.712 254.814C173.715 255.291 172.276 255.044 171.496 254.261L166.058 248.806C165.278 248.024 165.454 247.003 166.45 246.526L171.527 244.097C172.524 243.62 173.964 243.868 174.744 244.65L180.181 250.105C180.961 250.888 180.786 251.908 179.789 252.385L174.712 254.814Z" fill="#465E82"/>
<path fill-rule="evenodd" clip-rule="evenodd" d="M230.299 228.215C229.303 228.692 227.863 228.444 227.083 227.662L221.645 222.207C220.866 221.424 221.041 220.404 222.038 219.927L227.115 217.497C228.111 217.02 229.551 217.268 230.331 218.05L235.769 223.506C236.549 224.288 236.373 225.309 235.377 225.785L230.299 228.215Z" fill="#465E82"/>
<path fill-rule="evenodd" clip-rule="evenodd" d="M285.886 201.617C284.89 202.094 283.45 201.846 282.67 201.064L264.152 182.486C263.372 181.704 263.547 180.683 264.544 180.206L269.621 177.777C270.617 177.3 272.057 177.548 272.837 178.33L291.356 196.908C292.136 197.69 291.96 198.711 290.964 199.188L285.886 201.617Z" fill="#465E82"/>
<path fill-rule="evenodd" clip-rule="evenodd" d="M188.609 248.164C187.612 248.641 186.172 248.393 185.392 247.611L174.447 236.63C173.667 235.848 173.843 234.827 174.839 234.351L179.916 231.921C180.913 231.444 182.353 231.692 183.132 232.474L194.078 243.455C194.858 244.237 194.682 245.258 193.686 245.735L188.609 248.164Z" fill="#465E82"/>
<path fill-rule="evenodd" clip-rule="evenodd" d="M244.196 221.566C243.2 222.043 241.76 221.796 240.98 221.013L227.281 207.27C226.501 206.488 226.677 205.467 227.673 204.99L232.75 202.561C233.747 202.084 235.187 202.332 235.966 203.114L249.666 216.857C250.446 217.639 250.27 218.66 249.274 219.137L244.196 221.566Z" fill="#465E82"/>
<path fill-rule="evenodd" clip-rule="evenodd" d="M299.783 194.967C298.787 195.444 297.347 195.196 296.567 194.414L285.622 183.433C284.842 182.651 285.018 181.63 286.014 181.153L291.091 178.724C292.088 178.247 293.528 178.495 294.307 179.277L305.253 190.258C306.033 191.04 305.857 192.061 304.861 192.537L299.783 194.967Z" fill="#465E82"/>
<path fill-rule="evenodd" clip-rule="evenodd" d="M202.506 241.516C201.509 241.992 200.069 241.745 199.289 240.962L193.852 235.507C193.072 234.725 193.247 233.704 194.244 233.228L199.321 230.798C200.318 230.321 201.757 230.569 202.537 231.351L207.975 236.806C208.755 237.589 208.579 238.609 207.583 239.086L202.506 241.516Z" fill="#465E82"/>
<path fill-rule="evenodd" clip-rule="evenodd" d="M258.093 214.916C257.097 215.393 255.657 215.145 254.877 214.363L244.965 204.418C244.185 203.636 244.36 202.615 245.357 202.139L250.434 199.709C251.43 199.232 252.87 199.48 253.65 200.262L263.563 210.207C264.343 210.989 264.167 212.01 263.171 212.487L258.093 214.916Z" fill="#465E82"/>
<path fill-rule="evenodd" clip-rule="evenodd" d="M313.68 188.318C312.684 188.795 311.244 188.547 310.464 187.765L293.666 170.914C292.887 170.132 293.062 169.111 294.059 168.634L299.136 166.205C300.132 165.728 301.572 165.976 302.352 166.758L319.15 183.609C319.929 184.391 319.754 185.412 318.757 185.889L313.68 188.318Z" fill="#465E82"/>
<path fill-rule="evenodd" clip-rule="evenodd" d="M327.577 181.668C326.581 182.145 325.141 181.897 324.361 181.115L304.121 160.81C303.341 160.028 303.517 159.007 304.513 158.53L309.591 156.101C310.587 155.624 312.027 155.872 312.807 156.654L333.047 176.959C333.826 177.741 333.651 178.762 332.654 179.238L327.577 181.668Z" fill="#465E82"/>
<path fill-rule="evenodd" clip-rule="evenodd" d="M216.402 234.865C215.406 235.342 213.966 235.094 213.186 234.312L195.7 216.77C194.92 215.988 195.096 214.967 196.092 214.49L201.17 212.061C202.166 211.584 203.606 211.832 204.386 212.614L221.872 230.156C222.652 230.938 222.476 231.959 221.48 232.436L216.402 234.865Z" fill="#465E82"/>
<path fill-rule="evenodd" clip-rule="evenodd" d="M271.989 208.268C270.993 208.744 269.553 208.497 268.773 207.714L247.156 186.028C246.376 185.246 246.552 184.225 247.548 183.749L252.626 181.319C253.622 180.842 255.062 181.09 255.842 181.872L277.459 203.558C278.238 204.341 278.063 205.361 277.066 205.838L271.989 208.268Z" fill="#465E82"/>
<path fill-rule="evenodd" clip-rule="evenodd" d="M341.474 175.018C340.477 175.494 339.038 175.247 338.258 174.464L311.477 147.598C310.698 146.816 310.873 145.795 311.869 145.319L316.947 142.889C317.943 142.412 319.383 142.66 320.163 143.442L346.943 170.308C347.723 171.091 347.547 172.111 346.551 172.588L341.474 175.018Z" fill="#465E82"/>
<rect width="387.003" height="30.9511" rx="8" transform="matrix(0.90205 -0.431632 0.705976 0.708235 262.264 394.646)" fill="#213450"/>
<path fill-rule="evenodd" clip-rule="evenodd" d="M310.118 385.329C309.338 384.546 309.514 383.526 310.51 383.049L360.886 358.944C361.882 358.467 363.322 358.715 364.102 359.497L368.327 363.735C369.106 364.518 368.931 365.538 367.935 366.015L317.559 390.12C316.562 390.597 315.123 390.349 314.343 389.567L310.118 385.329Z" fill="#465E82"/>
<path fill-rule="evenodd" clip-rule="evenodd" d="M431.582 327.207C430.802 326.425 430.978 325.405 431.974 324.928L532.735 276.714C533.731 276.237 535.171 276.484 535.951 277.267L540.176 281.505C540.955 282.287 540.78 283.308 539.783 283.785L439.023 331.999C438.026 332.476 436.586 332.228 435.807 331.446L431.582 327.207Z" fill="#465E82"/>
<rect width="387.003" height="30.9511" rx="8" transform="matrix(0.90205 -0.431632 0.705976 0.708235 234.07 366.361)" fill="#213450"/>
<path fill-rule="evenodd" clip-rule="evenodd" d="M281.923 357.043C281.144 356.261 281.319 355.24 282.316 354.764L309.298 341.852C310.295 341.376 311.735 341.623 312.514 342.406L316.739 346.644C317.519 347.426 317.343 348.447 316.347 348.924L289.364 361.835C288.368 362.312 286.928 362.064 286.148 361.282L281.923 357.043Z" fill="#465E82"/>
<path fill-rule="evenodd" clip-rule="evenodd" d="M403.387 298.922C402.607 298.14 402.783 297.119 403.779 296.643L460.453 269.524C461.45 269.047 462.89 269.295 463.669 270.077L467.894 274.315C468.674 275.098 468.498 276.118 467.502 276.595L410.828 303.714C409.832 304.191 408.392 303.943 407.612 303.161L403.387 298.922Z" fill="#465E82"/>
<ellipse cx="6.98201" cy="6.98897" rx="6.98201" ry="6.98897" transform="matrix(0.90205 -0.431632 0.705976 0.708235 251.21 367.559)" fill="#465E82"/>
<rect width="387.003" height="30.9511" rx="8" transform="matrix(0.90205 -0.431632 0.705976 0.708235 205.875 338.076)" fill="#213450"/>
<path fill-rule="evenodd" clip-rule="evenodd" d="M253.729 328.758C252.949 327.976 253.125 326.955 254.121 326.479L292.8 307.97C293.797 307.494 295.236 307.741 296.016 308.524L300.241 312.762C301.021 313.544 300.845 314.565 299.849 315.042L261.17 333.55C260.173 334.027 258.733 333.779 257.954 332.997L253.729 328.758Z" fill="#465E82"/>
<path fill-rule="evenodd" clip-rule="evenodd" d="M375.193 270.637C374.413 269.855 374.588 268.834 375.585 268.357L512.335 202.922C513.331 202.446 514.771 202.693 515.551 203.475L519.776 207.714C520.555 208.496 520.38 209.517 519.384 209.993L382.634 275.429C381.637 275.905 380.197 275.658 379.417 274.875L375.193 270.637Z" fill="#465E82"/>
<ellipse cx="6.98201" cy="6.98897" rx="6.98201" ry="6.98897" transform="matrix(0.90205 -0.431632 0.705976 0.708235 223.016 339.273)" fill="#465E82"/>
<rect width="387.003" height="30.9511" rx="8" transform="matrix(0.90205 -0.431632 0.705976 0.708235 177.68 309.791)" fill="#213450"/>
<path fill-rule="evenodd" clip-rule="evenodd" d="M225.534 300.473C224.754 299.691 224.93 298.67 225.926 298.193L283.5 270.644C284.496 270.168 285.936 270.415 286.716 271.198L290.941 275.436C291.721 276.218 291.545 277.239 290.549 277.715L232.975 305.265C231.979 305.741 230.539 305.494 229.759 304.711L225.534 300.473Z" fill="#465E82"/>
<path fill-rule="evenodd" clip-rule="evenodd" d="M346.998 242.352C346.218 241.57 346.394 240.549 347.39 240.072L433.755 198.746C434.752 198.27 436.192 198.517 436.971 199.3L441.196 203.538C441.976 204.32 441.8 205.341 440.804 205.818L354.439 247.143C353.443 247.62 352.003 247.373 351.223 246.59L346.998 242.352Z" fill="#465E82"/>
<ellipse cx="6.98201" cy="6.98897" rx="6.98201" ry="6.98897" transform="matrix(0.90205 -0.431632 0.705976 0.708235 194.821 310.988)" fill="#465E82"/>
</g>
<defs>
<filter id="filter0_d_1301_13682" x="-344.083" y="-74.7285" width="1055.23" height="712.133" filterUnits="userSpaceOnUse" color-interpolation-filters="sRGB">
<feFlood flood-opacity="0" result="BackgroundImageFix"/>
<feColorMatrix in="SourceAlpha" type="matrix" values="0 0 0 0 0 0 0 0 0 0 0 0 0 0 0 0 0 0 127 0" result="hardAlpha"/>
<feMorphology radius="10" operator="erode" in="SourceAlpha" result="effect1_dropShadow_1301_13682"/>
<feOffset dy="25"/>
<feGaussianBlur stdDeviation="25"/>
<feColorMatrix type="matrix" values="0 0 0 0 0.021875 0 0 0 0 0.0395148 0 0 0 0 0.125 0 0 0 1 0"/>
<feBlend mode="normal" in2="BackgroundImageFix" result="effect1_dropShadow_1301_13682"/>
<feBlend mode="normal" in="SourceGraphic" in2="effect1_dropShadow_1301_13682" result="shape"/>
</filter>
</defs>
</svg>
