<svg width="632" height="376" viewBox="0 0 632 376" fill="none" xmlns="http://www.w3.org/2000/svg">
<rect width="632" height="376" fill="#071324"/>
<mask id="mask0_1301_13687" style="mask-type:alpha" maskUnits="userSpaceOnUse" x="0" y="0" width="632" height="376">
<rect width="632" height="376" fill="#EAD9CC"/>
</mask>
<g mask="url(#mask0_1301_13687)">
<g filter="url(#filter0_d_1301_13687)">
<rect width="596.707" height="366.037" rx="24" transform="matrix(0.90205 -0.431632 0.705976 0.708236 -66.9561 185.465)" fill="#0F1E34"/>
</g>
<rect width="212.711" height="230.468" rx="8" transform="matrix(0.90205 -0.431632 0.705976 0.708236 34.1406 253.875)" fill="#213450"/>
<rect width="309.109" height="176.24" rx="8" transform="matrix(0.90205 -0.431632 0.705976 0.708236 187.084 88.9316)" fill="#213450"/>
<rect width="175.268" height="86.1263" rx="8" transform="matrix(0.90205 -0.431632 0.705976 0.708236 143.156 337.684)" fill="#0F1E34"/>
<rect width="175.268" height="66.9871" rx="8" transform="matrix(0.90205 -0.431632 0.705976 0.708236 271.327 147.889)" fill="#0F1E34"/>
<rect width="212.711" height="62.9998" rx="8" transform="matrix(0.90205 -0.431632 0.705976 0.708236 -27.7886 191.748)" fill="#213450"/>
<path fill-rule="evenodd" clip-rule="evenodd" d="M118.837 290.927C117.283 289.368 117.633 287.333 119.619 286.382L155.544 269.192C157.53 268.242 160.401 268.736 161.956 270.295C163.51 271.855 163.16 273.89 161.174 274.84L125.249 292.03C123.263 292.981 120.392 292.487 118.837 290.927Z" fill="#465E82"/>
<path fill-rule="evenodd" clip-rule="evenodd" d="M130.097 302.224C128.543 300.665 128.893 298.63 130.879 297.679L166.804 280.489C168.79 279.539 171.661 280.033 173.215 281.592C174.77 283.152 174.42 285.187 172.434 286.137L136.509 303.327C134.522 304.278 131.652 303.784 130.097 302.224Z" fill="#465E82"/>
<path fill-rule="evenodd" clip-rule="evenodd" d="M511.022 96.5935C509.467 95.0339 509.817 92.999 511.803 92.0485L547.728 74.8584C549.715 73.9079 552.585 74.4017 554.14 75.9613C555.695 77.5209 555.345 79.5558 553.358 80.5063L517.433 97.6964C515.447 98.6469 512.576 98.1531 511.022 96.5935Z" fill="#465E82"/>
<path fill-rule="evenodd" clip-rule="evenodd" d="M498.636 84.1677C497.081 82.6081 497.431 80.5732 499.418 79.6227L535.342 62.4326C537.329 61.4821 540.199 61.9759 541.754 63.5355C543.309 65.0952 542.959 67.13 540.972 68.0806L505.047 85.2706C503.061 86.2211 500.19 85.7274 498.636 84.1677Z" fill="#465E82"/>
<path fill-rule="evenodd" clip-rule="evenodd" d="M486.813 72.3064C485.258 70.7468 485.608 68.7119 487.595 67.7614L523.52 50.5713C525.506 49.6208 528.377 50.1146 529.931 51.6742C531.486 53.2338 531.136 55.2687 529.149 56.2192L493.225 73.4093C491.238 74.3598 488.368 73.866 486.813 72.3064Z" fill="#465E82"/>
<path fill-rule="evenodd" clip-rule="evenodd" d="M474.99 60.447C473.435 58.8874 473.785 56.8525 475.772 55.902L511.697 38.7119C513.683 37.7614 516.554 38.2552 518.108 39.8148C519.663 41.3745 519.313 43.4093 517.327 44.3599L481.402 61.5499C479.415 62.5004 476.545 62.0066 474.99 60.447Z" fill="#465E82"/>
<rect width="7.96672" height="7.97466" rx="3.98336" transform="matrix(0.90205 -0.431632 0.705976 0.708236 101.65 294.98)" fill="#465E82"/>
<rect width="7.96672" height="7.97466" rx="3.98336" transform="matrix(0.90205 -0.431632 0.705976 0.708236 112.91 306.277)" fill="#465E82"/>
<rect width="7.96674" height="7.97466" rx="3.98337" transform="matrix(0.90205 -0.431632 0.705976 0.708236 493.834 100.646)" fill="#465E82"/>
<rect width="7.96674" height="7.97466" rx="3.98337" transform="matrix(0.90205 -0.431632 0.705976 0.708236 481.448 88.2207)" fill="#465E82"/>
<rect width="7.96674" height="7.97466" rx="3.98337" transform="matrix(0.90205 -0.431632 0.705976 0.708236 469.625 76.3613)" fill="#465E82"/>
<rect width="7.96674" height="7.97466" rx="3.98337" transform="matrix(0.90205 -0.431632 0.705976 0.708236 457.802 64.5)" fill="#465E82"/>
<path fill-rule="evenodd" clip-rule="evenodd" d="M67.8793 261.102C66.3197 259.538 66.6709 257.497 68.6636 256.543L172.117 207.04C174.11 206.087 176.99 206.582 178.55 208.147L181.347 210.953C182.906 212.517 182.555 214.559 180.562 215.512L77.1085 265.015C75.1157 265.968 72.236 265.473 70.6764 263.908L67.8793 261.102Z" fill="#465E82"/>
<path fill-rule="evenodd" clip-rule="evenodd" d="M220.26 95.5927C218.7 94.0281 219.051 91.9868 221.044 91.0332L418.64 -3.51653C420.632 -4.47006 423.512 -3.97471 425.072 -2.41012L427.869 0.3959C429.428 1.96049 429.077 4.00184 427.084 4.95537L229.489 99.5051C227.496 100.459 224.617 99.9633 223.057 98.3987L220.26 95.5927Z" fill="#465E82"/>
<path fill-rule="evenodd" clip-rule="evenodd" d="M48.194 179.595C46.6344 178.03 46.9856 175.989 48.9783 175.035L152.432 125.532C154.425 124.579 157.305 125.074 158.864 126.639L161.661 129.445C163.221 131.009 162.87 133.051 160.877 134.004L57.4232 183.507C55.4304 184.461 52.5507 183.965 50.9911 182.401L48.194 179.595Z" fill="#465E82"/>
<path fill-rule="evenodd" clip-rule="evenodd" d="M80.5421 273.805C79.7623 273.023 79.9378 272.002 80.9342 271.525L139.848 243.335C140.844 242.859 142.284 243.106 143.064 243.888L145.87 246.703C146.649 247.486 146.474 248.506 145.477 248.983L86.5641 277.173C85.5678 277.65 84.1279 277.402 83.3481 276.62L80.5421 273.805Z" fill="#0F1E34"/>
<path fill-rule="evenodd" clip-rule="evenodd" d="M232.923 108.297C232.143 107.515 232.318 106.494 233.315 106.018L378.465 36.5631C379.461 36.0864 380.901 36.334 381.681 37.1163L384.487 39.9313C385.267 40.7136 385.091 41.7343 384.095 42.2111L238.945 111.666C237.948 112.142 236.509 111.895 235.729 111.112L232.923 108.297Z" fill="#0F1E34"/>
<path fill-rule="evenodd" clip-rule="evenodd" d="M244.182 119.592C243.403 118.81 243.578 117.789 244.575 117.313L312.112 84.996C313.108 84.5192 314.548 84.7669 315.328 85.5492L318.134 88.3642C318.913 89.1465 318.738 90.1671 317.741 90.6439L250.205 122.96C249.208 123.437 247.768 123.19 246.988 122.407L244.182 119.592Z" fill="#0F1E34"/>
<path fill-rule="evenodd" clip-rule="evenodd" d="M58.6051 190.04C57.8253 189.257 58.0008 188.237 58.9972 187.76L117.911 159.57C118.907 159.093 120.347 159.341 121.127 160.123L123.933 162.938C124.712 163.72 124.537 164.741 123.54 165.218L64.6271 193.408C63.6308 193.884 62.1909 193.637 61.4111 192.855L58.6051 190.04Z" fill="#0F1E34"/>
<path fill-rule="evenodd" clip-rule="evenodd" d="M90.6759 283.971C89.8961 283.189 90.0716 282.168 91.068 281.691L171.54 243.185C172.537 242.708 173.977 242.956 174.756 243.738L177.562 246.553C178.342 247.336 178.167 248.356 177.17 248.833L96.6979 287.339C95.7016 287.816 94.2617 287.568 93.4819 286.786L90.6759 283.971Z" fill="#0F1E34"/>
<path fill-rule="evenodd" clip-rule="evenodd" d="M210.038 388.266C209.042 388.742 207.602 388.495 206.822 387.712L196.134 376.99C195.354 376.208 195.53 375.187 196.526 374.711L199.855 373.118C200.852 372.641 202.292 372.889 203.071 373.671L213.759 384.393C214.539 385.175 214.364 386.196 213.367 386.673L210.038 388.266Z" fill="#465E82"/>
<path fill-rule="evenodd" clip-rule="evenodd" d="M254.437 367.022C253.441 367.498 252.001 367.251 251.221 366.468L240.533 355.746C239.753 354.964 239.929 353.943 240.925 353.466L244.255 351.873C245.251 351.397 246.691 351.644 247.471 352.427L258.158 363.149C258.938 363.931 258.763 364.952 257.766 365.428L254.437 367.022Z" fill="#465E82"/>
<path fill-rule="evenodd" clip-rule="evenodd" d="M298.836 345.775C297.839 346.252 296.4 346.004 295.62 345.222L263.538 313.038C262.758 312.256 262.934 311.235 263.93 310.758L267.26 309.165C268.256 308.688 269.696 308.936 270.476 309.718L302.557 341.903C303.337 342.685 303.161 343.706 302.165 344.182L298.836 345.775Z" fill="#465E82"/>
<path fill-rule="evenodd" clip-rule="evenodd" d="M221.138 382.955C220.141 383.432 218.701 383.184 217.922 382.402L198.226 362.643C197.446 361.861 197.622 360.84 198.618 360.363L201.947 358.77C202.943 358.294 204.383 358.541 205.163 359.324L224.859 379.082C225.639 379.865 225.463 380.885 224.467 381.362L221.138 382.955Z" fill="#465E82"/>
<path fill-rule="evenodd" clip-rule="evenodd" d="M265.537 361.709C264.541 362.186 263.101 361.938 262.321 361.156L238.121 336.879C237.341 336.096 237.517 335.076 238.513 334.599L241.843 333.006C242.839 332.529 244.279 332.777 245.059 333.559L269.258 357.836C270.038 358.619 269.863 359.639 268.866 360.116L265.537 361.709Z" fill="#465E82"/>
<path fill-rule="evenodd" clip-rule="evenodd" d="M309.936 340.465C308.939 340.942 307.499 340.694 306.72 339.912L287.024 320.153C286.244 319.371 286.42 318.35 287.416 317.873L290.745 316.28C291.742 315.803 293.181 316.051 293.961 316.833L313.657 336.592C314.437 337.374 314.261 338.395 313.265 338.872L309.936 340.465Z" fill="#465E82"/>
<path fill-rule="evenodd" clip-rule="evenodd" d="M232.238 377.643C231.241 378.119 229.801 377.872 229.022 377.089L218.334 366.367C217.554 365.585 217.73 364.564 218.726 364.088L222.055 362.495C223.051 362.018 224.491 362.265 225.271 363.048L235.959 373.77C236.739 374.552 236.563 375.573 235.567 376.05L232.238 377.643Z" fill="#465E82"/>
<path fill-rule="evenodd" clip-rule="evenodd" d="M276.637 356.398C275.64 356.875 274.201 356.628 273.421 355.845L255.414 337.781C254.634 336.999 254.81 335.978 255.806 335.501L259.135 333.908C260.132 333.431 261.572 333.679 262.351 334.461L280.358 352.526C281.138 353.308 280.962 354.329 279.966 354.805L276.637 356.398Z" fill="#465E82"/>
<path fill-rule="evenodd" clip-rule="evenodd" d="M321.035 335.152C320.039 335.629 318.599 335.381 317.819 334.599L288.553 305.239C287.773 304.457 287.948 303.436 288.945 302.959L292.274 301.366C293.27 300.889 294.71 301.137 295.49 301.919L324.757 331.28C325.536 332.062 325.361 333.083 324.364 333.559L321.035 335.152Z" fill="#465E82"/>
<path fill-rule="evenodd" clip-rule="evenodd" d="M332.135 329.842C331.139 330.319 329.699 330.071 328.919 329.289L294.023 294.28C293.243 293.498 293.419 292.477 294.415 292.001L297.744 290.408C298.74 289.931 300.18 290.179 300.96 290.961L335.857 325.969C336.636 326.751 336.461 327.772 335.465 328.249L332.135 329.842Z" fill="#465E82"/>
<path fill-rule="evenodd" clip-rule="evenodd" d="M243.337 372.332C242.341 372.809 240.901 372.561 240.121 371.779L209.729 341.289C208.949 340.507 209.124 339.486 210.121 339.009L213.45 337.416C214.446 336.939 215.886 337.187 216.666 337.969L247.059 368.459C247.838 369.242 247.663 370.262 246.666 370.739L243.337 372.332Z" fill="#465E82"/>
<path fill-rule="evenodd" clip-rule="evenodd" d="M287.736 351.088C286.74 351.565 285.3 351.317 284.52 350.535L247.371 313.267C246.592 312.485 246.767 311.464 247.764 310.988L251.093 309.395C252.089 308.918 253.529 309.166 254.309 309.948L291.457 347.215C292.237 347.997 292.062 349.018 291.065 349.495L287.736 351.088Z" fill="#465E82"/>
<path fill-rule="evenodd" clip-rule="evenodd" d="M343.235 324.531C342.239 325.008 340.799 324.76 340.019 323.978L294.426 278.239C293.646 277.456 293.821 276.436 294.818 275.959L298.147 274.366C299.143 273.889 300.583 274.137 301.363 274.919L346.956 320.659C347.736 321.441 347.561 322.461 346.564 322.938L343.235 324.531Z" fill="#465E82"/>
<path fill-rule="evenodd" clip-rule="evenodd" d="M324.698 184.914C323.702 185.391 322.262 185.143 321.482 184.361L317.707 180.574C316.928 179.792 317.103 178.771 318.1 178.294L321.429 176.701C322.425 176.224 323.865 176.472 324.645 177.254L328.42 181.041C329.199 181.824 329.024 182.844 328.028 183.321L324.698 184.914Z" fill="#465E82"/>
<path fill-rule="evenodd" clip-rule="evenodd" d="M369.097 163.67C368.101 164.147 366.661 163.899 365.881 163.117L362.106 159.33C361.327 158.547 361.502 157.527 362.499 157.05L365.828 155.457C366.824 154.98 368.264 155.228 369.044 156.01L372.819 159.797C373.598 160.579 373.423 161.6 372.426 162.077L369.097 163.67Z" fill="#465E82"/>
<path fill-rule="evenodd" clip-rule="evenodd" d="M413.496 142.424C412.5 142.901 411.06 142.653 410.28 141.871L396.057 127.602C395.277 126.82 395.453 125.799 396.449 125.322L399.778 123.729C400.775 123.253 402.215 123.5 402.994 124.283L417.217 138.551C417.997 139.333 417.822 140.354 416.825 140.831L413.496 142.424Z" fill="#465E82"/>
<path fill-rule="evenodd" clip-rule="evenodd" d="M335.798 179.604C334.801 180.08 333.361 179.833 332.582 179.05L324.408 170.85C323.628 170.068 323.803 169.047 324.8 168.57L328.129 166.977C329.125 166.501 330.565 166.748 331.345 167.531L339.519 175.731C340.299 176.513 340.123 177.534 339.127 178.011L335.798 179.604Z" fill="#465E82"/>
<path fill-rule="evenodd" clip-rule="evenodd" d="M380.197 158.357C379.201 158.834 377.761 158.587 376.981 157.804L366.608 147.397C365.828 146.615 366.003 145.594 367 145.118L370.329 143.525C371.325 143.048 372.765 143.296 373.545 144.078L383.919 154.485C384.698 155.267 384.523 156.288 383.526 156.764L380.197 158.357Z" fill="#465E82"/>
<path fill-rule="evenodd" clip-rule="evenodd" d="M424.596 137.113C423.6 137.59 422.16 137.342 421.38 136.56L413.206 128.36C412.426 127.578 412.602 126.557 413.598 126.08L416.927 124.487C417.924 124.01 419.363 124.258 420.143 125.04L428.317 133.241C429.097 134.023 428.921 135.044 427.925 135.52L424.596 137.113Z" fill="#465E82"/>
<path fill-rule="evenodd" clip-rule="evenodd" d="M346.898 174.293C345.901 174.77 344.462 174.522 343.682 173.74L339.907 169.953C339.127 169.171 339.303 168.15 340.299 167.673L343.628 166.08C344.625 165.603 346.064 165.851 346.844 166.633L350.619 170.42C351.399 171.203 351.223 172.223 350.227 172.7L346.898 174.293Z" fill="#465E82"/>
<path fill-rule="evenodd" clip-rule="evenodd" d="M391.297 153.047C390.301 153.524 388.861 153.276 388.081 152.494L380.732 145.121C379.952 144.339 380.128 143.318 381.124 142.841L384.453 141.248C385.45 140.771 386.889 141.019 387.669 141.801L395.018 149.174C395.798 149.956 395.623 150.977 394.626 151.454L391.297 153.047Z" fill="#465E82"/>
<path fill-rule="evenodd" clip-rule="evenodd" d="M435.696 131.803C434.699 132.28 433.259 132.032 432.48 131.25L419.631 118.36C418.852 117.578 419.027 116.557 420.023 116.08L423.353 114.487C424.349 114.011 425.789 114.258 426.569 115.041L439.417 127.93C440.197 128.712 440.021 129.733 439.025 130.21L435.696 131.803Z" fill="#465E82"/>
<path fill-rule="evenodd" clip-rule="evenodd" d="M446.795 126.49C445.799 126.967 444.359 126.719 443.579 125.937L427.982 110.289C427.202 109.507 427.377 108.486 428.374 108.01L431.703 106.417C432.699 105.94 434.139 106.188 434.919 106.97L450.517 122.618C451.297 123.4 451.121 124.42 450.125 124.897L446.795 126.49Z" fill="#465E82"/>
<path fill-rule="evenodd" clip-rule="evenodd" d="M357.997 168.98C357.001 169.457 355.561 169.21 354.781 168.427L341.383 154.986C340.603 154.204 340.779 153.183 341.775 152.707L345.105 151.114C346.101 150.637 347.541 150.884 348.321 151.667L361.719 165.108C362.499 165.89 362.323 166.911 361.327 167.387L357.997 168.98Z" fill="#465E82"/>
<path fill-rule="evenodd" clip-rule="evenodd" d="M402.396 147.736C401.4 148.213 399.96 147.965 399.18 147.183L382.483 130.432C381.703 129.65 381.878 128.629 382.875 128.152L386.204 126.559C387.2 126.083 388.64 126.33 389.42 127.113L406.117 143.864C406.897 144.646 406.722 145.667 405.725 146.143L402.396 147.736Z" fill="#465E82"/>
<path fill-rule="evenodd" clip-rule="evenodd" d="M457.895 121.18C456.899 121.656 455.459 121.409 454.679 120.626L433.857 99.7381C433.077 98.9558 433.253 97.9352 434.249 97.4584L437.579 95.8654C438.575 95.3886 440.015 95.6363 440.795 96.4186L461.616 117.307C462.396 118.089 462.221 119.11 461.224 119.587L457.895 121.18Z" fill="#465E82"/>
<ellipse cx="16.3318" cy="16.348" rx="16.3318" ry="16.348" transform="matrix(0.90205 -0.431632 0.705976 0.708236 2.15576 194.104)" fill="#465E82"/>
<rect width="309.109" height="24.7214" rx="8" transform="matrix(0.90205 -0.431632 0.705976 0.708236 394.265 296.775)" fill="#213450"/>
<path fill-rule="evenodd" clip-rule="evenodd" d="M432.771 289.618C431.992 288.835 432.167 287.815 433.164 287.338L472.674 268.432C473.67 267.955 475.11 268.203 475.89 268.985L478.696 271.8C479.476 272.583 479.3 273.603 478.304 274.08L438.794 292.986C437.797 293.463 436.357 293.215 435.577 292.433L432.771 289.618Z" fill="#465E82"/>
<path fill-rule="evenodd" clip-rule="evenodd" d="M529.788 243.196C529.008 242.413 529.183 241.393 530.18 240.916L609.934 202.754C610.93 202.277 612.37 202.525 613.15 203.307L615.956 206.122C616.735 206.904 616.56 207.925 615.563 208.402L535.81 246.564C534.813 247.041 533.373 246.793 532.594 246.011L529.788 243.196Z" fill="#465E82"/>
<ellipse cx="5.57671" cy="5.58226" rx="5.57671" ry="5.58226" transform="matrix(0.90205 -0.431632 0.705976 0.708236 407.956 297.732)" fill="#465E82"/>
<rect width="309.109" height="24.7214" rx="8" transform="matrix(0.90205 -0.431632 0.705976 0.708236 371.745 274.184)" fill="#213450"/>
<path fill-rule="evenodd" clip-rule="evenodd" d="M410.252 267.026C409.472 266.244 409.648 265.223 410.644 264.746L431.469 254.781C432.466 254.304 433.906 254.552 434.685 255.334L437.491 258.149C438.271 258.932 438.096 259.952 437.099 260.429L416.274 270.394C415.277 270.871 413.838 270.623 413.058 269.841L410.252 267.026Z" fill="#465E82"/>
<path fill-rule="evenodd" clip-rule="evenodd" d="M507.268 220.604C506.488 219.822 506.664 218.801 507.66 218.324L552.201 197.012C553.197 196.535 554.637 196.782 555.417 197.565L558.223 200.38C559.002 201.162 558.827 202.183 557.83 202.659L513.29 223.972C512.294 224.449 510.854 224.201 510.074 223.419L507.268 220.604Z" fill="#465E82"/>
<ellipse cx="5.57671" cy="5.58226" rx="5.57671" ry="5.58226" transform="matrix(0.90205 -0.431632 0.705976 0.708236 385.436 275.141)" fill="#465E82"/>
<rect width="309.109" height="24.7214" rx="8" transform="matrix(0.90205 -0.431632 0.705976 0.708236 349.226 251.592)" fill="#213450"/>
<path fill-rule="evenodd" clip-rule="evenodd" d="M387.732 244.434C386.952 243.652 387.128 242.631 388.124 242.154L418.292 227.719C419.288 227.242 420.728 227.49 421.508 228.272L424.314 231.087C425.094 231.869 424.918 232.89 423.922 233.367L393.754 247.802C392.758 248.279 391.318 248.031 390.538 247.249L387.732 244.434Z" fill="#465E82"/>
<path fill-rule="evenodd" clip-rule="evenodd" d="M484.748 198.012C483.968 197.23 484.144 196.209 485.14 195.732L593.64 143.815C594.636 143.339 596.076 143.586 596.856 144.369L599.662 147.184C600.442 147.966 600.266 148.986 599.27 149.463L490.77 201.38C489.774 201.857 488.334 201.609 487.554 200.827L484.748 198.012Z" fill="#465E82"/>
<ellipse cx="5.57671" cy="5.58226" rx="5.57671" ry="5.58226" transform="matrix(0.90205 -0.431632 0.705976 0.708236 362.917 252.549)" fill="#465E82"/>
<rect width="309.109" height="24.7214" rx="8" transform="matrix(0.90205 -0.431632 0.705976 0.708236 326.706 229)" fill="#213450"/>
<path fill-rule="evenodd" clip-rule="evenodd" d="M365.212 221.842C364.432 221.06 364.608 220.039 365.604 219.563L410.864 197.906C411.86 197.429 413.3 197.677 414.08 198.459L416.886 201.274C417.665 202.056 417.49 203.077 416.493 203.554L371.234 225.21C370.238 225.687 368.798 225.44 368.018 224.657L365.212 221.842Z" fill="#465E82"/>
<path fill-rule="evenodd" clip-rule="evenodd" d="M462.228 175.42C461.449 174.638 461.624 173.617 462.621 173.141L530.876 140.48C531.873 140.003 533.312 140.251 534.092 141.033L536.898 143.848C537.678 144.631 537.502 145.651 536.506 146.128L468.251 178.789C467.254 179.265 465.814 179.018 465.034 178.235L462.228 175.42Z" fill="#465E82"/>
<ellipse cx="5.57671" cy="5.58226" rx="5.57671" ry="5.58226" transform="matrix(0.90205 -0.431632 0.705976 0.708236 340.397 229.957)" fill="#465E82"/>
<path d="M28.5073 198.178L28.507 198.178C30.2165 197.36 30.4683 195.559 29.0693 194.155C27.67 192.752 25.1497 192.277 23.44 193.095C21.73 193.913 21.4785 195.714 22.8772 197.118L22.877 197.117C24.2757 198.521 26.7963 198.996 28.5058 198.178L28.5073 198.178ZM29.2311 198.904C27.3124 199.822 24.452 202.628 26.3774 204.56L27.825 206.012L39.3232 200.51L37.8756 199.058C35.9502 197.126 31.1499 197.986 29.2311 198.904Z" fill="#213450"/>
</g>
<defs>
<filter id="filter0_d_1301_13687" x="-95.856" y="-79.6445" width="854.473" height="581.9" filterUnits="userSpaceOnUse" color-interpolation-filters="sRGB">
<feFlood flood-opacity="0" result="BackgroundImageFix"/>
<feColorMatrix in="SourceAlpha" type="matrix" values="0 0 0 0 0 0 0 0 0 0 0 0 0 0 0 0 0 0 127 0" result="hardAlpha"/>
<feMorphology radius="10" operator="erode" in="SourceAlpha" result="effect1_dropShadow_1301_13687"/>
<feOffset dy="25"/>
<feGaussianBlur stdDeviation="25"/>
<feColorMatrix type="matrix" values="0 0 0 0 0.021875 0 0 0 0 0.0395148 0 0 0 0 0.125 0 0 0 1 0"/>
<feBlend mode="normal" in2="BackgroundImageFix" result="effect1_dropShadow_1301_13687"/>
<feBlend mode="normal" in="SourceGraphic" in2="effect1_dropShadow_1301_13687" result="shape"/>
</filter>
</defs>
</svg>
